<svg width="83.03" height="55.94" viewBox="0 0 83.03 55.94" xmlns="http://www.w3.org/2000/svg" xmlns:xlink="http://www.w3.org/1999/xlink" overflow="hidden"><defs></defs><g><g><path d="M14.7 43.38 10.31 40.85 12.72 39.45 17.11 41.99Z" stroke="#5B9BD5" stroke-width="1.08497" fill="none"/><path d="M21.65 47.39 17.25 44.86 19.67 43.47 24.06 46Z" stroke="#5B9BD5" stroke-width="1.08497" fill="none"/><path d="M28.6 51.41 24.2 48.87 26.62 47.48 31.01 50.01Z" stroke="#5B9BD5" stroke-width="1.08497" fill="none"/><path d="M36.5 55.29C35.4 55.02 34.4 54.62 33.48 54.19L32.82 53.84C32.6 53.72 32.44 53.63 32.25 53.52L31.15 52.89 33.56 51.5 34.66 52.13C34.84 52.23 35.04 52.35 35.2 52.44L35.69 52.69C36.37 53.01 37.09 53.3 37.9 53.5L36.5 55.29Z" stroke="#5B9BD5" stroke-width="1.08497" fill="none"/><path d="M47.44 55.18C46.38 55.49 45.23 55.69 44.06 55.83 42.89 55.95 41.69 55.97 40.5 55.91L40.82 53.94C41.69 53.98 42.57 53.97 43.43 53.88 44.28 53.78 45.12 53.64 45.9 53.41L47.44 55.18Z" stroke="#5B9BD5" stroke-width="1.08497" fill="none"/><path d="M54.16 50.22C53.66 51.57 52.45 52.81 50.79 53.79L48.35 52.39C49.56 51.67 50.45 50.77 50.81 49.78L54.16 50.22Z" stroke="#5B9BD5" stroke-width="1.08497" fill="none"/><path d="M51.73 44.05C52.48 44.59 53.06 45.2 53.53 45.83 53.96 46.47 54.26 47.14 54.4 47.83L51 48.03C50.9 47.53 50.68 47.04 50.37 46.57 50.02 46.11 49.6 45.66 49.05 45.27L51.73 44.05Z" stroke="#5B9BD5" stroke-width="1.08497" fill="none"/><path d="M44.71 39.92 49.1 42.45 46.69 43.85 42.3 41.31Z" stroke="#5B9BD5" stroke-width="1.08497" fill="none"/><path d="M37.76 35.91 42.16 38.44 39.74 39.83 35.35 37.3Z" stroke="#5B9BD5" stroke-width="1.08497" fill="none"/><path d="M33.46 31.72C33.56 32.22 33.78 32.71 34.09 33.18 34.44 33.64 34.86 34.09 35.41 34.48L32.72 35.7C31.97 35.16 31.39 34.55 30.92 33.92 30.49 33.28 30.19 32.61 30.05 31.92L33.46 31.72Z" stroke="#5B9BD5" stroke-width="1.08497" fill="none"/><path d="M36.1 27.36C34.89 28.08 34 28.98 33.64 29.97L30.3 29.53C30.8 28.18 32.01 26.94 33.67 25.96L36.1 27.36Z" stroke="#5B9BD5" stroke-width="1.08497" fill="none"/><path d="M43.63 25.8C42.76 25.76 41.88 25.77 41.02 25.86 40.17 25.96 39.33 26.1 38.55 26.33L37.01 24.56C38.07 24.25 39.22 24.05 40.39 23.91 41.56 23.79 42.76 23.77 43.95 23.83L43.63 25.8Z" stroke="#5B9BD5" stroke-width="1.08497" fill="none"/><path d="M50.89 28.26 49.79 27.63C49.61 27.53 49.41 27.41 49.25 27.32L48.76 27.07C48.08 26.75 47.36 26.46 46.55 26.26L47.94 24.46C49.04 24.73 50.04 25.13 50.96 25.56L51.62 25.91C51.84 26.03 52 26.12 52.19 26.23L53.29 26.86 50.89 28.26Z" stroke="#5B9BD5" stroke-width="1.08497" fill="none"/><path d="M57.84 32.27 53.45 29.74 55.86 28.35 60.25 30.88Z" stroke="#5B9BD5" stroke-width="1.08497" fill="none"/><path d="M64.79 36.29 60.39 33.75 62.81 32.36 67.2 34.89Z" stroke="#5B9BD5" stroke-width="1.08497" fill="none"/><path d="M71.73 40.3 67.34 37.76 69.76 36.37 74.15 38.9Z" stroke="#5B9BD5" stroke-width="1.08497" fill="none"/></g><path d="M77.23 42.12C75.5 43.12 72.68 43.12 70.93 42.11 69.19 41.1 69.18 39.48 70.91 38.47 72.64 37.47 75.46 37.47 77.21 38.48 78.96 39.49 78.97 41.12 77.23 42.12Z" stroke="#5B9BD5" stroke-width="1.08497" fill="none"/><path d="M13.04 40.68C11.31 41.68 8.49 41.68 6.74 40.67 5 39.66 4.99 38.03 6.72 37.03 8.45 36.03 11.27 36.03 13.02 37.04 14.76 38.05 14.77 39.68 13.04 40.68Z" stroke="#5B9BD5" stroke-width="1.08497" fill="none"/><g><g><path d="M12.76 5.61 12.76 5.61C11.4 5.05 9.64 5.25 7.71 6.37 3.45 8.83 0 14.78 0 19.67 0 26.33 7.72 33.9 7.72 33.9L10.38 35.28 15.47 7.02 12.76 5.61Z" stroke="#5B9BD5" stroke-width="1.08497" fill="none"/><g><path d="M10.38 7.75C14.64 5.29 18.1 7.26 18.1 12.15 18.1 18.81 10.38 35.29 10.38 35.29 10.38 35.29 2.66 27.72 2.66 21.06 2.66 16.16 6.12 10.21 10.38 7.75Z" stroke="#5B9BD5" stroke-width="1.08497" fill="none"/><path d="M5.91 19.18C5.91 22.01 7.91 23.15 10.38 21.73 12.85 20.3 14.85 16.85 14.85 14.02 14.85 11.19 12.85 10.05 10.38 11.47 7.91 12.89 5.91 16.35 5.91 19.18Z" stroke="#5B9BD5" stroke-width="1.08497" fill="none"/></g></g><path d="M2.89 21.3C2.89 16.46 6.3 10.57 10.52 8.14 14.19 6.02 17.26 7.23 17.98 10.78 17.38 6.92 14.21 5.53 10.37 7.75 6.11 10.21 2.65 16.17 2.65 21.06 2.65 27.72 10.37 35.29 10.37 35.29 10.37 35.29 10.38 35.27 10.39 35.25 9.45 34.28 2.89 27.4 2.89 21.3Z" stroke="#5B9BD5" stroke-width="1.08497" fill="none"/></g><g><g><path d="M77.27 0.35 77.27 0.35C75.69-0.3 73.65-0.07 71.41 1.23 66.46 4.09 62.45 11 62.45 16.68 62.45 24.41 71.41 33.2 71.41 33.2L74.08 34.52 79.99 1.7 77.27 0.35Z" stroke="#5B9BD5" stroke-width="1.08497" fill="none"/><g><path d="M74.07 2.54C79.02-0.32 83.03 1.97 83.03 7.65 83.03 15.38 74.07 34.51 74.07 34.51 74.07 34.51 65.11 25.72 65.11 17.99 65.12 12.31 69.13 5.4 74.07 2.54Z" stroke="#5B9BD5" stroke-width="1.08497" fill="none"/><path d="M68.89 15.81C68.89 19.1 71.21 20.42 74.08 18.77 76.95 17.12 79.27 13.11 79.27 9.82 79.27 6.53 76.95 5.21 74.08 6.86 71.21 8.52 68.89 12.53 68.89 15.81Z" stroke="#5B9BD5" stroke-width="1.08497" fill="none"/></g></g><path d="M65.53 18.16C65.53 12.61 69.45 5.86 74.28 3.07 79.06 0.31 82.94 2.47 83.02 7.89 83.02 7.81 83.03 7.73 83.03 7.66 83.03 1.98 79.02-0.3 74.07 2.55 69.12 5.41 65.11 12.32 65.11 18 65.11 25.73 74.07 34.52 74.07 34.52L74.07 34.52C74.07 34.51 65.53 25.7 65.53 18.16Z" stroke="#5B9BD5" stroke-width="1.08497" fill="none"/></g></g></svg>