<svg width="64.31" height="85.34" viewBox="0 0 64.31 85.34" xmlns="http://www.w3.org/2000/svg" xmlns:xlink="http://www.w3.org/1999/xlink" overflow="hidden"><defs></defs><g><path d="M41.98 72.45C47.11 69.49 55.4 69.47 60.5 72.42 65.6 75.36 65.57 80.15 60.44 83.11 55.31 86.07 47.02 86.09 41.92 83.14 36.82 80.2 36.85 75.41 41.98 72.45Z" stroke="#5B9BD5" stroke-width="0.729345" fill="none"/><path d="M40.68 79.61 29.64 73.24 40.68 66.87 51.71 73.24Z" stroke="#5B9BD5" stroke-width="0.729345" fill="none"/><g><g><path d="M38.77 19.78C38.77 19.78 38.82 19.18 39.28 19.36 39.74 19.54 41.81 21.2 41.95 21.45 42.08 21.71 42.4 22.58 42.82 23.07 43.24 23.57 50.66 26.8 50.74 27.09 50.83 27.38 49.1 29.57 47.59 28.84 46.08 28.11 42.37 25.13 41.73 24.96 41.09 24.78 40.75 24.66 40.4 24.42 40.05 24.18 39.43 23.37 39.43 23.37 39.43 23.37 38.13 22.94 37.99 22.75 37.85 22.56 38.02 22.31 38.24 22.31 38.45 22.3 39.7 22.7 39.7 22.7L39.07 22.14C39.07 22.14 37.84 21.55 37.83 21.31 37.82 21.07 38.11 20.84 38.22 20.83 38.33 20.83 38 20.68 38.02 20.36 38.03 20.05 38.5 19.92 38.5 19.92L38.77 19.78Z" stroke="#5B9BD5" stroke-width="0.729345" fill="none"/><path d="M41.82 23.41C41.82 23.41 41.16 23.63 41 22.83 40.84 22.03 41.2 21.44 41.19 21.03 41.17 20.62 41.1 20.39 41.1 20.39 41.1 20.39 40.67 19.85 40.84 19.26 41.01 18.67 41.35 19.36 41.38 19.43 41.41 19.5 41.73 20.12 41.77 20.24 41.81 20.36 42.11 21.34 42.15 21.65 42.18 21.97 43.12 23.3 41.82 23.41Z" stroke="#5B9BD5" stroke-width="0.729345" fill="none"/></g><g><path d="M33.13 30.46 40.89 25.98 40.89 17.07 33.13 21.55Z" stroke="#5B9BD5" stroke-width="0.729345" fill="none"/><path d="M33.13 30.46 25.37 25.98 25.37 17.07 33.13 21.55Z" stroke="#5B9BD5" stroke-width="0.729345" fill="none"/><path d="M33.13 21.55 25.37 17.07 33.13 12.59 40.89 17.07Z" stroke="#5B9BD5" stroke-width="0.729345" fill="none"/><path d="M36.63 23.05 37.88 22.33 37.88 18.81 36.63 19.53Z" stroke="#5B9BD5" stroke-width="0.729345" fill="none"/><path d="M36.63 19.53 28.87 15.05 30.11 14.33 37.88 18.81Z" stroke="#5B9BD5" stroke-width="0.729345" fill="none"/><path d="M37.21 19.2 29.44 14.71 29.51 14.67 37.28 19.16Z" stroke="#5B9BD5" stroke-width="0.729345" fill="none"/><path d="M25.37 17.07 33.13 21.55 28.94 19.31Z" stroke="#5B9BD5" stroke-width="0.729345" fill="none"/></g><g><linearGradient x1="2139.63" y1="-22.0795" x2="2140.78" y2="-22.0795" gradientUnits="userSpaceOnUse" id="SVGID_1_" gradientTransform="matrix(-0.9993 0.037 0.037 0.9993 2189.61 -38.8636)"><stop offset="0.1224" stop-color="#FEB9B8"/><stop offset="1" stop-color="#FFDEDE"/></linearGradient><path d="M57.11 23.04C57.11 23.04 57.88 22.44 59.28 23.03 60.67 23.63 61.28 25.37 61.4 25.79 61.52 26.21 61.62 31.61 61.62 31.61 61.62 31.61 61.01 33.21 58.47 32.57 55.92 31.93 57.11 23.04 57.11 23.04Z" stroke="#5B9BD5" stroke-width="0.729345" fill="none"/><path d="M54.79 72.25C54.76 72.2 53.33 71.44 52.29 71.46 51.24 71.48 51.34 72.76 51.53 73.33 51.72 73.9 53.55 75.4 53.55 75.4L54.39 76.23C54.39 76.23 55.2 77.11 55.61 77.4 56.02 77.68 56.77 77.71 57.32 77.47 57.88 77.23 57.99 77.11 58.02 77.06 58.05 77.01 58.41 75.83 58.02 74.72 57.63 73.61 54.79 72.25 54.79 72.25Z" stroke="#5B9BD5" stroke-width="0.729345" fill="none"/><path d="M58.29 64.62C58.48 66.84 58.48 69.7 58.46 71.92 58.45 74.15 58.32 75.22 58.32 75.22 58.32 75.22 57.82 76.03 56.62 76.01 56.28 76 55.91 75.9 55.56 75.75 54.68 75.38 53.89 74.71 53.81 74.55 53.7 74.32 53.86 73.12 53.91 72.79 53.97 72.45 54.35 69.25 53.8 66.28 53.26 63.31 52.13 58.74 52.08 57.28 52.06 56.82 52.13 55.86 52.24 54.76 52.46 52.36 52.84 49.31 52.84 49.31L59.55 46.66C59.55 46.66 59.78 50.1 58.45 52.45 57.14 54.76 57.35 57.12 57.38 58.01 57.42 58.91 58.11 62.4 58.29 64.62Z" stroke="#5B9BD5" stroke-width="0.729345" fill="none"/><path d="M55.56 75.75C54.68 75.38 53.89 74.71 53.81 74.55 53.7 74.32 53.86 73.12 53.91 72.79 53.97 72.45 54.35 69.25 53.8 66.28 53.26 63.31 52.13 58.74 52.08 57.28 52.06 56.82 52.13 55.86 52.24 54.76 52.95 54.05 53.8 53.49 54.8 53.11 54.8 53.11 53.5 57.4 53.96 60.03 54.41 62.66 55.29 66.53 55.25 69.11 55.2 71.7 54.33 73.99 55.25 75.32 55.34 75.46 55.45 75.6 55.56 75.75Z" stroke="#5B9BD5" stroke-width="0.729345" fill="none"/><path d="M43.49 78.52C43.72 79.04 44 79.81 45.83 80.28 47.66 80.74 48.23 80.57 48.64 80.74 49.04 80.91 49.81 81.31 50.04 81.35 50.27 81.39 51.54 81.62 52.22 81.35 52.74 81.14 52.98 80.82 53.07 80.58 53.1 80.51 53.11 80.45 53.12 80.4 53.14 80.18 53.22 79.04 53.06 78.83 52.9 78.62 49.27 76.64 49.27 76.64 49.27 76.64 46.25 76.79 45.61 76.78 44.96 76.77 43.97 76.84 43.77 76.98 43.65 77.07 43.48 77.45 43.43 77.85 43.39 78.08 43.41 78.32 43.49 78.52Z" stroke="#5B9BD5" stroke-width="0.729345" fill="none"/><path d="M48.93 76.92C48.93 76.92 47.65 76.92 47.31 77.15 46.97 77.38 46.54 78.45 47.53 79.06 48.27 79.52 50.29 79.44 50.62 79.48 50.95 79.52 51.58 79.44 51.79 79.22 52 79 50.49 77.93 50.49 77.93L48.93 76.92Z" stroke="#5B9BD5" stroke-width="0.729345" fill="none"/><path d="M43.49 78.52C43.72 79.04 44 79.81 45.83 80.28 47.66 80.74 48.23 80.57 48.64 80.74 49.04 80.91 49.81 81.31 50.04 81.35 50.27 81.39 51.54 81.62 52.22 81.35 52.74 81.14 52.98 80.82 53.07 80.58 52.98 80.61 52.88 80.67 52.8 80.76 52.3 81.3 50.67 81.2 50.12 81.02 48.65 80.54 48.24 80.59 48.24 80.59 48.24 80.59 46.95 80.39 46.31 80.19 45.67 79.99 44.63 79.69 44.1 79.15 43.57 78.61 43.43 77.85 43.43 77.85 43.39 78.08 43.41 78.32 43.49 78.52Z" stroke="#5B9BD5" stroke-width="0.729345" fill="none"/><path d="M56.41 52.37C55.72 53.52 53.49 55.17 53.36 56 53.22 56.84 52.37 60.66 52.63 64.17 52.89 67.68 53.15 69.23 53.12 72.82 53.08 76.41 53.17 79.03 53.17 79.03 53.17 79.03 52.45 80.02 50.85 79.81 49.95 79.69 49.29 79.26 48.9 78.81 48.59 78.47 48.43 78.13 48.42 77.91 48.4 77.41 47.84 68.53 47.02 64.31 46.2 60.09 45.11 52.09 45.76 49.08 45.78 49 45.8 48.93 45.84 48.86 46.95 46.26 56.92 49.83 56.92 49.83 56.92 49.83 57.1 51.21 56.41 52.37Z" stroke="#5B9BD5" stroke-width="0.729345" fill="none"/><g><path d="M49.28 79.07 49.03 79.06C49.31 74.15 48.77 70.71 48.08 66.35 47.65 63.61 47.16 60.5 46.79 56.45 46.54 53.7 46.4 50.02 46.4 49.98L46.65 49.97C46.65 50.01 46.79 53.68 47.04 56.42 47.41 60.46 47.9 63.56 48.33 66.3 49.02 70.67 49.56 74.13 49.28 79.07Z" stroke="#5B9BD5" stroke-width="0.729345" fill="none"/></g><path d="M48.9 78.81C48.59 78.47 48.43 78.13 48.42 77.91 48.4 77.41 47.84 68.53 47.02 64.31 46.2 60.09 45.11 52.09 45.76 49.08 45.78 49 45.8 48.93 45.84 48.86 46.1 49.02 46.37 49.2 46.64 49.4 46.64 49.4 45.99 52.03 46.46 55.53 46.92 59.03 48.09 66.12 48.24 67.81 48.37 69.27 48.71 76.23 48.9 78.81Z" stroke="#5B9BD5" stroke-width="0.729345" fill="none"/><path d="M59.67 42.93C59.76 44.05 59.93 46.73 59.46 47.49 58.98 48.24 58.43 48.43 57.14 49.43 55.86 50.42 52.56 51.64 49.42 51.43 47.84 51.32 46.82 50.78 46.18 50.26 45.54 49.74 45.3 49.24 45.3 49.24 45.3 49.24 46.25 44.42 46.13 42.09 46.04 40.21 45.48 34.69 45.59 31.37 45.62 30.55 45.68 29.86 45.81 29.4 46.45 27.06 48.79 25.75 50.12 24.63 51.45 23.51 54.51 22.72 55.68 22.6 56.84 22.49 58.92 22.73 59.28 23.04 59.64 23.35 60.9 24.5 60.78 27.9 60.66 31.29 59.69 35.53 59.28 37.91 58.87 40.3 59.58 41.81 59.67 42.93Z" stroke="#5B9BD5" stroke-width="0.729345" fill="none"/><path d="M47.45 43.86C47.23 46.05 46.3 46.91 46.18 50.26 45.54 49.74 45.3 49.24 45.3 49.24 45.3 49.24 46.25 44.42 46.13 42.09 46.04 40.21 45.48 34.69 45.59 31.37 45.72 31.11 45.79 30.98 45.79 30.98L50.06 30.35C50.06 30.35 47.61 34.12 47.45 35.32 47.29 36.53 47.69 41.4 47.45 43.86Z" stroke="#5B9BD5" stroke-width="0.729345" fill="none"/><path d="M55.94 17.21C55.94 17.21 55.34 19.91 55.47 20.78 55.6 21.66 55.73 22.1 55.98 22.37 56.22 22.64 56.43 22.84 56.43 22.84 56.43 22.84 56.33 23.72 54.1 24.1 51.87 24.48 50.84 24.49 50.56 24.56 50.28 24.64 50.28 24.64 50.28 24.64L50.58 24.28C50.58 24.28 50.26 21.81 50.16 21.52 50.07 21.22 49.53 21.46 48.87 21.33 48.22 21.2 48.2 20.77 48.16 20.54 48.12 20.31 47.84 17.83 47.82 17.63 47.8 17.43 47.43 16.98 47.43 16.98L47.8 16.3C47.8 16.3 47.45 15.93 47.44 15.47 47.42 15.01 47.53 13.03 48.04 12.41 48.55 11.79 51.95 11.39 52.88 11.67 53.82 11.96 56.42 13.89 55.94 17.21Z" stroke="#5B9BD5" stroke-width="0.729345" fill="none"/><path d="M48.09 13.38C48.09 13.38 48.19 13.49 48.22 13.77 48.25 14.05 47.96 14.33 47.97 14.74 47.99 15.15 48.08 15.98 48.08 15.98 48.08 15.98 48.44 15.97 48.59 16.36 48.74 16.75 48.86 17.33 48.86 17.33L48.87 17.73 49.26 17.85C49.26 17.85 49.36 16.88 50.03 17.09 50.7 17.3 51.31 17.67 51.69 18.46 52.07 19.24 52.17 19.82 52.56 20.07 52.95 20.32 54.18 20.33 54.67 20.17 55.16 20.02 55.48 19.76 55.48 19.76 55.48 19.76 56.21 18.79 57.02 16.43 57.83 14.08 57.33 12.7 57.01 12.25 56.69 11.8 55.75 11.44 55.75 11.44 55.75 11.44 55.79 10.41 53.39 9.91 50.98 9.42 48.17 11.48 47.85 11.83 47.53 12.17 47.48 13.09 47.48 13.09L48.09 13.38Z" stroke="#5B9BD5" stroke-width="0.729345" fill="none"/><path d="M49.07 15.11C49.07 15.11 45.81 14.42 45.05 14.08 44.52 13.84 44.44 13.65 44.57 12.87 44.64 12.43 44.97 11.55 45.44 11.12 45.86 10.73 46.49 10.47 46.86 10.48 47.57 10.49 50.68 10.86 51.61 11.02 52.55 11.18 49.07 15.11 49.07 15.11Z" stroke="#5B9BD5" stroke-width="0.729345" fill="none"/><path d="M57.31 15.49C57.31 15.49 56.64 16.72 53.79 16.65 50.95 16.59 47.69 14.46 47.59 13.77 47.49 13.09 47.23 11.4 49.23 10.46 51.23 9.52 53.2 9.37 54.86 9.99 56.51 10.62 58.23 12.43 57.31 15.49Z" stroke="#5B9BD5" stroke-width="0.729345" fill="none"/><path d="M49.53 17.59C49.53 17.59 49.38 17.23 49.62 16.92 49.86 16.61 50.53 17.08 50.64 17.96 50.75 18.84 50.58 19.46 50.23 19.66 49.88 19.86 49.71 19.29 49.71 19.29 49.71 19.29 50.08 18.21 49.53 17.59Z" stroke="#5B9BD5" stroke-width="0.729345" fill="none"/></g><g><path d="M47.36 26.72C46.58 27.05 46.41 27.16 44.47 28.37 40.78 30.66 39.91 31.42 38.91 31.73 37.91 32.04 37.49 33.3 37.58 34.23 37.67 35.16 37.59 35.67 39.74 35.24 41.89 34.81 47.58 31.97 49.26 30.8 51.33 29.37 49.72 25.72 47.36 26.72Z" stroke="#5B9BD5" stroke-width="0.729345" fill="none"/><path d="M28.31 23.65C28.31 23.65 27.92 23.1 28.02 23.03 28.12 22.96 28.36 22.52 28.77 23.04 29.18 23.56 30.48 24.82 30.54 24.83 30.61 24.85 30.91 24.45 30.91 24.45 30.91 24.45 30.14 23.53 30.25 22.98 30.36 22.43 31.13 22.82 31.2 22.96 31.27 23.09 31.7 24.01 31.93 24.35 32.16 24.68 32.65 25.3 32.79 25.8 32.93 26.3 32.94 27.18 33.24 27.53 33.53 27.88 39.7 32 39.7 32 39.7 32 39.73 36.55 37.98 35.15 36.23 33.74 31.57 28.68 31.32 28.54 31.07 28.4 29.11 27.69 28.96 27.57 28.81 27.45 28.48 26.35 28.48 26.35L28.16 25.47C28.16 25.47 27.88 25.07 27.9 24.92 27.92 24.77 27.9 24.42 27.9 24.42 27.9 24.42 27.62 23.89 27.91 23.77 28.18 23.66 28.31 23.65 28.31 23.65Z" stroke="#5B9BD5" stroke-width="0.729345" fill="none"/><path d="M28.31 23.65 29.77 25.47 28.73 24.56 28.1 23.7Z" stroke="#5B9BD5" stroke-width="0.729345" fill="none"/><path d="M27.89 24.42 28.92 25.8 28.4 25.36 27.89 24.65Z" stroke="#5B9BD5" stroke-width="0.729345" fill="none"/><path d="M41.91 29.86C41.91 29.86 41.63 31.15 42.56 32.38 43.5 33.61 44.33 34.19 44.33 34.19 44.33 34.19 49.52 31.6 50.05 30.34 50.5 29.28 51.19 27.28 48.45 26.41 47.08 25.97 41.91 29.86 41.91 29.86Z" stroke="#5B9BD5" stroke-width="0.729345" fill="none"/></g></g></g><g><path d="M3.06 60.04C7.12 57.7 13.68 57.68 17.72 60.01 21.75 62.34 21.73 66.13 17.67 68.47 13.61 70.81 7.05 70.83 3.01 68.5-1.02 66.17-1 62.38 3.06 60.04Z" stroke="#5B9BD5" stroke-width="0.729345" fill="none"/><g><linearGradient x1="2089.49" y1="11.1763" x2="2088.41" y2="-0.5698" gradientUnits="userSpaceOnUse" id="SVGID_2_" gradientTransform="matrix(-1 0 0 1 2094.15 0)"><stop offset="0.1224" stop-color="#F7413E"/><stop offset="0.9896" stop-color="#FF6D67"/></linearGradient><linearGradient x1="7.58" y1="10.885" x2="10.2832" y2="14.3069" gradientUnits="userSpaceOnUse" id="SVGID_3_"><stop offset="0.1224" stop-color="#FCA4B5"/><stop offset="0.9896" stop-color="#FFADB7"/></linearGradient><linearGradient x1="2087.32" y1="8.0152" x2="2090.06" y2="6.7755" gradientUnits="userSpaceOnUse" id="SVGID_4_" gradientTransform="matrix(-1 0 0 1 2094.15 0)"><stop offset="0.1224" stop-color="#FEB9B8"/><stop offset="1" stop-color="#FFDEDE"/></linearGradient><linearGradient x1="2088.69" y1="7.0342" x2="2087.92" y2="8.0051" gradientUnits="userSpaceOnUse" id="SVGID_5_" gradientTransform="matrix(-1 0 0 1 2094.15 0)"><stop offset="0.1224" stop-color="#FCA4B5"/><stop offset="0.9896" stop-color="#FFADB7"/></linearGradient><path d="M16.08 65.11C14.07 63.72 13.13 63.82 13.13 63.82 13.13 63.82 10.63 63.99 10.9 62.49 11.12 61.21 11.45 60.42 11.53 59.87 11.55 59.78 11.55 59.69 11.55 59.61 11.48 56.36 10.09 51.04 10.52 48.5 10.84 46.61 10.57 44.52 10.24 42.52 10.22 42.47 10.22 42.43 10.21 42.38 10.12 41.82 10.03 41.27 9.94 40.74 9.93 40.68 9.93 40.63 9.91 40.58 9.86 40.24 9.81 39.91 9.77 39.59 9.75 39.42 9.73 39.26 9.71 39.1 9.67 38.78 9.64 38.47 9.63 38.18 9.6 37.7 9.61 37.25 9.65 36.84 9.68 36.58 9.72 36.34 9.79 36.11 10.6 33.28 15.89 32.5 15.89 32.5 15.89 32.5 16.42 37.79 15.55 42.41 14.2 49.55 13.84 58.16 13.79 60.44 13.77 61.38 15.03 62.16 15.61 62.5 16.43 62.97 18.02 64.03 18.02 64.03 18.02 64.03 18.09 66.5 16.08 65.11Z" stroke="#5B9BD5" stroke-width="0.729345" fill="none"/><path d="M11.28 39.02C11.28 39.02 11.65 42.97 11.48 46.6 11.32 50.21 11.1 49.93 11.36 52.5 11.63 55.07 12.12 58.75 11.98 59.58 11.84 60.41 11.03 62.09 11.06 63.18 10.95 63.01 10.89 62.78 10.94 62.5 11.14 61.22 11.46 60.43 11.53 59.87 11.55 59.78 11.55 59.69 11.55 59.61 11.48 56.36 10.09 51.04 10.52 48.5 10.84 46.61 10.57 44.52 10.24 42.52 10.22 42.47 10.22 42.43 10.21 42.38 10.12 41.82 10.03 41.27 9.94 40.74 9.93 40.68 9.93 40.63 9.91 40.58 9.86 40.24 9.81 39.91 9.77 39.59 9.75 39.42 9.73 39.26 9.71 39.1 9.67 38.78 9.64 38.47 9.63 38.18 9.6 37.7 9.61 37.25 9.65 36.84 10.4 36.53 11.39 36.37 12.67 36.42 12.67 36.42 12.82 37.17 12.02 38.24 11.41 39.08 11.28 39.02 11.28 39.02Z" stroke="#5B9BD5" stroke-width="0.729345" fill="none"/><path d="M14.43 61.54C14.9 61.4 15.37 62.07 15.7 62.36 15.7 62.36 18.24 63.85 18.31 64.04 18.39 64.24 18.5 64.83 18.42 64.95 18.34 65.06 17.45 65.91 16.18 65.45 14.91 64.99 14.45 64.55 13.6 64.34 12.75 64.13 11.08 63.79 10.86 63.33 10.64 62.87 10.88 61.32 10.88 61.32 10.88 61.32 11.15 61.22 11.25 61.41 11.36 61.6 11.85 62.14 12.42 62.32 12.83 62.45 13.28 62.43 13.69 62.37 13.66 62.25 13.62 62.14 13.71 62.03 13.77 61.95 13.86 61.91 13.95 61.85 14.06 61.77 14.16 61.67 14.28 61.6 14.33 61.58 14.38 61.55 14.43 61.54Z" stroke="#5B9BD5" stroke-width="0.729345" fill="none"/><path d="M12.26 37.54C11.76 38.17 11.04 38.44 11.04 38.44 11.04 38.44 10.53 48.22 9.65 50.36 8.77 52.51 8.04 60.41 8.06 60.74 8.08 61.06 8.13 63.01 9.66 64.51 11.19 66.01 11.86 66.3 11.84 66.53 11.82 66.76 11.14 67.91 9.69 67.67 8.25 67.43 7.85 67.33 7.15 66.59 6.45 65.85 5.71 65.35 5.6 64.77 5.5 64.19 5.99 63.05 5.69 61.96 5.7 61.95 5.69 61.95 5.69 61.94 5.68 61.88 5.66 61.81 5.64 61.73 5.64 61.71 5.64 61.68 5.63 61.66 5.61 61.59 5.6 61.5 5.58 61.41 5.54 61.16 5.5 60.87 5.45 60.53 5.13 58.13 4.74 53.68 4.9 52.27 5.35 48.29 5.8 48.69 5.67 47.56 5.53 46.43 3.69 40.76 3.8 34.26 3.8 34.1 3.84 33.95 3.91 33.83 4.85 31.97 12.53 33.85 12.53 33.85 12.53 33.85 12.96 36.65 12.26 37.54Z" stroke="#5B9BD5" stroke-width="0.729345" fill="none"/><g><path d="M6.35 63.2C4.51 54.63 5.75 50.46 6.22 48.89 6.28 48.68 6.33 48.51 6.35 48.41 6.45 47.82 5.65 44.51 5.12 42.31 4.88 41.33 4.68 40.49 4.6 40.08 4.33 38.71 4.49 34.56 4.5 34.39L4.75 34.4C4.75 34.44 4.58 38.69 4.84 40.04 4.92 40.45 5.12 41.29 5.36 42.26 6.1 45.3 6.7 47.87 6.59 48.46 6.57 48.58 6.52 48.74 6.45 48.97 6 50.51 4.78 54.64 6.6 63.15L6.35 63.2Z" stroke="#5B9BD5" stroke-width="0.729345" fill="none"/></g><path d="M6.48 65.92C6.08 65.55 5.75 65.22 5.68 64.86 5.57 64.28 6.04 63.14 5.72 62.05 5.71 62.02 5.7 61.99 5.69 61.96 5.7 61.95 5.69 61.95 5.69 61.94 5.68 61.88 5.66 61.81 5.64 61.73 5.64 61.71 5.64 61.68 5.63 61.66 5.62 61.58 5.6 61.5 5.58 61.41 5.54 61.16 5.5 60.87 5.45 60.53 5.13 58.13 4.74 53.68 4.9 52.27 5.35 48.29 5.8 48.69 5.67 47.56 5.53 46.43 3.69 40.76 3.8 34.26 3.8 34.1 3.84 33.95 3.91 33.83 4.2 33.9 4.42 33.97 4.42 33.97 4.42 33.97 4.08 36.34 4.42 39.4 4.77 42.47 6.17 47.53 6.17 48.16 6.17 48.78 5.21 50.6 5.24 53.97 5.28 57.34 6.26 62.1 6.2 62.78 6.16 63.26 5.55 64.42 6.48 65.92Z" stroke="#5B9BD5" stroke-width="0.729345" fill="none"/><path d="M9.47 63.99C9.24 63.91 8.95 63.95 8.68 64 8.37 64.06 8.07 64.18 7.79 64.32 7.51 64.45 7.5 64.56 7.52 64.83 7.15 64.65 6.12 64.13 5.96 63.74 5.84 63.46 5.8 62.67 5.8 62.67 5.8 62.67 5.74 62.79 5.7 63.26 5.65 63.73 5.55 64.93 5.56 65.25 5.58 65.57 7.26 66.94 7.73 67.27 8.94 68.12 9.34 68.43 11.03 68.49 12.72 68.54 12.62 67.39 12.61 67.11 12.59 66.84 10.93 65.41 10.46 65.07 10.19 64.87 9.99 64.51 9.81 64.24 9.71 64.12 9.59 64.04 9.47 63.99Z" stroke="#5B9BD5" stroke-width="0.729345" fill="none"/><path d="M12.68 11.12C12.68 11.12 13.79 10.92 15.18 13.18 16.41 15.18 17.3 16.59 18.7 17.99 20.11 19.39 20.51 19.61 20.57 20.51 20.63 21.41 20.34 23.11 18.49 22.42 16.64 21.73 14.48 17.98 13.67 16.39 12.86 14.82 5.52 11.07 12.68 11.12Z" stroke="#5B9BD5" stroke-width="0.729345" fill="none"/><path d="M18.62 17.9C18.62 17.9 17.17 18.23 16.17 18.92 15.17 19.61 11.11 11.08 11.66 10.95 12.5 10.76 13.33 11.1 14.07 11.67 14.78 12.22 18.62 17.9 18.62 17.9Z" stroke="#5B9BD5" stroke-width="0.729345" fill="none"/><path d="M7.42 1.61C7.42 1.61 7.01-0.84 4.7 0.3 3.39 0.95 1.97 3.21 3.64 6.83 5.34 10.51 3.34 13.45 3.34 13.45 3.34 13.45 5.73 13.07 6.58 12.28 7.43 11.48 7.16 10.78 7.05 8.3 6.93 5.82 7.42 1.61 7.42 1.61Z" stroke="#5B9BD5" stroke-width="0.729345" fill="none"/><path d="M16.41 20.37C16.43 20.96 16.32 21.33 16.15 21.72 16.15 21.72 16.15 21.72 16.15 21.73 16.11 21.81 16.07 21.9 16.03 21.99 15.89 22.28 15.72 22.62 15.54 23.07 15.04 24.37 16.09 32.28 15.93 32.85 15.77 33.41 15.57 33.94 13.12 34.68 10.39 35.52 6.54 35.43 4.6 34.67 4.3 34.55 4.03 34.42 3.8 34.26 3.8 34.26 4.33 28.69 4.2 26.61 4.12 25.4 3.49 23.84 2.86 22.27 2.83 22.2 2.8 22.12 2.77 22.05 2.35 21 1.95 19.96 1.72 19.01 0.68 14.7 2.33 14.19 3.64 13.19 4.76 12.34 5.91 11.89 7.2 11.58 9.14 11.1 11.24 10.76 11.83 10.82 12.42 10.88 14.11 11.73 14.82 14.29 15.44 16.51 16.11 18.38 16.33 19.67 16.37 19.87 16.39 20.05 16.4 20.22 16.41 20.27 16.41 20.32 16.41 20.37Z" stroke="#5B9BD5" stroke-width="0.729345" fill="none"/><path d="M16.41 20.37C16.43 20.96 16.32 21.33 16.15 21.72 16.15 21.72 16.15 21.72 16.15 21.73 16.11 21.81 16.07 21.9 16.03 21.99 15.53 22.11 14.91 22.27 14.55 22.35 13.86 22.51 12.14 21.94 12.14 21.94L13.26 21.25C13.26 21.25 11.36 20.84 10.87 20.44 10.39 20.03 10.54 19.21 10.54 19.21 11.63 18.01 14.64 18.99 16.33 19.67 16.37 19.87 16.39 20.05 16.4 20.22 16.41 20.27 16.41 20.32 16.41 20.37Z" stroke="#5B9BD5" stroke-width="0.729345" fill="none"/><path d="M15.93 32.85C15.77 33.41 15.57 33.94 13.12 34.68 10.39 35.52 6.54 35.43 4.6 34.67 4.3 34.55 4.03 34.42 3.8 34.26 3.8 34.26 4.33 28.69 4.2 26.61 4.12 25.4 3.49 23.84 2.86 22.27 3.25 20.21 3.86 18.68 4.73 18.59 7.37 18.31 4.8 23.95 8.41 24.11 11.75 24.26 11.59 22.98 13.18 22.75 14.95 22.5 15.79 22.36 16.15 21.73 15.99 22.09 15.78 22.48 15.54 23.07 15.04 24.37 16.09 32.28 15.93 32.85Z" stroke="#5B9BD5" stroke-width="0.729345" fill="none"/><path d="M11.83 32.05 5.62 28.59C5.62 28.59 4.78 28.89 4.68 30.87 4.61 32.21 4.75 33.57 4.6 34.67 4.3 34.55 4.03 34.42 3.8 34.26 3.8 34.26 4.33 28.69 4.2 26.61 4.12 25.34 3.43 23.69 2.77 22.05 4.36 20.35 5.81 18.98 5.81 18.98 5.81 18.98 6.15 21.19 6.58 22.59 7.16 24.47 10.54 23.99 11.87 23.31 10.75 24.15 7.91 24.39 6.83 23.83 7.07 25.28 6.96 27.03 6.96 27.03L11.83 32.05Z" stroke="#5B9BD5" stroke-width="0.729345" fill="none"/><path d="M2.43 14.62C2.43 14.62 4.59 13.9 5.47 17.48 6.89 23.3 6.39 26.33 6.43 26.88 8.79 29.81 12.94 32.18 13.04 32.17 13.14 32.16 14.27 32.37 14.4 32.56 14.53 32.75 16.34 33.87 16.43 34.11 16.53 34.35 18.1 35.09 18.1 35.09L18.28 35.44C18.28 35.44 18.6 35.56 18.6 35.85 18.61 36.14 18.29 36.16 18.29 36.16 18.29 36.16 18.39 36.62 18.04 36.65 17.69 36.68 16.37 36.15 16.33 36.12 16.29 36.09 16.25 36.15 16.25 36.15 16.25 36.15 16.74 36.43 16.81 36.63 16.88 36.83 16.87 37.27 16.4 37.06 15.94 36.86 14.74 36.15 14.42 35.91 14.1 35.67 13.05 34.61 12.94 34.52 12.86 34.46 12.52 33.74 11.71 33.28 11.4 33.1 10.96 32.89 10.32 32.63 8.05 31.71 4.26 29.32 4.03 28.19 3.54 25.75 0.99 17.76 1.33 15.83 1.51 14.89 2.43 14.62 2.43 14.62Z" stroke="#5B9BD5" stroke-width="0.729345" fill="none"/><g><path d="M4.35 28.41C4.57 28.77 4.99 29.25 6.69 30.48 8.4 31.71 11.67 33.05 11.79 33.14 11.91 33.23 12.51 33.84 12.51 33.84L12.95 33.87 13.6 33.51 13.53 33.73 13.28 34.07C13.28 34.07 13.3 34.45 13.46 34.69 13.62 34.92 14.33 35.68 14.48 35.85 14.63 36.02 16.24 36.96 16.45 37.03 16.56 37.07 16.71 37.05 16.81 36.99 16.76 37.1 16.64 37.17 16.4 37.07 15.94 36.87 14.74 36.16 14.42 35.92 14.1 35.68 13.05 34.62 12.94 34.53 12.86 34.47 12.52 33.75 11.71 33.29 11.4 33.11 10.96 32.9 10.32 32.64 8.3 31.82 5.08 29.84 4.23 28.61 4.28 28.43 4.31 28.35 4.35 28.41Z" stroke="#5B9BD5" stroke-width="0.729345" fill="none"/><path d="M16.26 36.15C16.26 36.15 16.31 36.18 16.38 36.22 16.29 36.17 16.22 36.15 16.22 36.15L15.2 35.18 15.12 35.02 16.25 36.02C16.25 36.02 17.5 36.56 17.85 36.55 18.2 36.54 18.27 36.52 18.26 36.35 18.25 36.18 18.15 36.1 18.08 35.99 18.01 35.89 17.15 35.77 16.96 35.67 16.77 35.57 15.94 35.04 15.94 35.04 15.94 35.04 16.52 35.37 17.03 35.6 17.53 35.83 17.98 35.83 18.07 35.86 18.16 35.89 18.27 36.09 18.27 36.09L18.44 36.08C18.44 36.08 18.55 35.96 18.52 35.81 18.49 35.66 18.36 35.61 18.36 35.61L17.1 35.18 16.34 34.67 17.12 35.08C17.12 35.08 18.13 35.43 18.31 35.48 18.39 35.52 18.6 35.64 18.61 35.87 18.62 36.16 18.3 36.18 18.3 36.18 18.3 36.18 18.4 36.64 18.05 36.67 17.7 36.7 16.38 36.17 16.34 36.14 16.3 36.08 16.26 36.15 16.26 36.15Z" stroke="#5B9BD5" stroke-width="0.729345" fill="none"/><path d="M6.82 27.34C6.18 26.95 6.8 27.48 6.24 27.49 5.68 27.5 4.72 27.44 4.72 27.44 4.72 27.44 4.72 27.44 5.25 27.28 6.36 27.06 6.42 26.87 6.42 26.87 6.55 27.04 6.69 27.19 6.82 27.34 6.82 27.35 6.82 27.35 6.82 27.34Z" stroke="#5B9BD5" stroke-width="0.729345" fill="none"/></g><path d="M11.94 35.18C11.94 35.18 12.06 34.75 12.03 34.48 12 34.21 11.81 33.92 11.83 33.48 11.85 33.04 12.04 32.5 12.54 32.34 13.04 32.18 13.41 32.07 13.75 32.78 14.09 33.49 12.97 33.74 12.92 33.96 12.87 34.17 12.96 34.58 12.86 34.93 12.76 35.26 12.07 35.8 11.94 35.18Z" stroke="#5B9BD5" stroke-width="0.729345" fill="none"/><path d="M11 19.68 11 19.68C11.01 19.68 10.95 20.01 11.04 20.19 11.14 20.37 12.59 20.68 12.59 20.68L14.29 21.11C14.29 21.11 12.96 21.3 12.7 21.28 12.44 21.26 11.81 21.32 11.99 21.69 12.17 22.06 14.22 21.84 14.8 21.85 15.37 21.85 15.62 21.6 16.32 21.61 17.03 21.62 18.78 23.05 19.53 22.69 20.28 22.34 21.01 20.91 20.44 19.91 19.87 18.91 18.52 19.35 17.88 19.35 17.24 19.35 16.62 19.16 16.27 19.05 15.92 18.94 15.69 18.51 15.64 18.39 15.6 18.27 14.96 17.74 14.96 17.74 14.74 17.55 13.75 16.72 13.66 16.61 13.57 16.51 13.41 16.23 13.34 16.15 13.27 16.07 13.13 15.87 12.97 16.06 12.96 16.07 12.96 16.07 12.96 16.08 12.81 16.26 12.92 16.41 13.01 16.73 13.1 17.05 13.72 17.59 13.72 17.59L14.34 18.21C14.34 18.21 14.26 18.34 13.95 18.43 13.93 18.44 13.9 18.44 13.86 18.44L13.86 18.44C13.72 18.45 13.47 18.43 13.17 18.41L13.16 18.41C12.34 18.34 11.17 18.19 10.91 18.23 10.65 18.27 10.75 18.57 10.78 18.74 10.79 18.78 10.79 18.82 10.78 18.84 10.77 18.85 10.76 18.86 10.74 18.86 10.58 18.83 10.44 19.06 10.42 19.37 10.42 19.45 10.45 19.51 10.51 19.55 10.66 19.66 10.94 19.68 11 19.68Z" stroke="#5B9BD5" stroke-width="0.729345" fill="none"/><path d="M10.62 8C10.62 8 10.59 10.81 10.75 11.86 10.91 12.91 11.26 13.54 10.07 13.92 9.39 14.14 6.84 13.44 5.78 12.25 5.69 12.1 5.97 11.92 6.21 11.09 6.45 10.25 6.63 9.87 6.62 8.24 6.62 6.62 6.7 5.12 6.7 5.12L10.62 8Z" stroke="#5B9BD5" stroke-width="0.729345" fill="none"/><path d="M10.78 11.96C10.61 11.98 10.35 11.96 9.97 11.86 8.35 11.45 7.91 11.37 7.42 11.86 6.93 12.34 7.11 12.88 7.66 13.46 6.94 13.17 6.23 12.76 5.79 12.26 5.7 12.12 5.98 11.93 6.22 11.1 6.46 10.27 6.63 9.89 6.63 8.25L6.63 7.47 10.69 11.18C10.71 11.45 10.73 11.69 10.76 11.87 10.76 11.9 10.77 11.93 10.78 11.96Z" stroke="#5B9BD5" stroke-width="0.729345" fill="none"/><path d="M8.99 0.22C8.99 0.22 11.68 0.78 12.38 2.84 13.08 4.9 12.97 4.99 12.92 5.81 12.87 6.63 13.14 7.79 12.82 9.13 12.5 10.47 12.19 11.61 11.58 11.81 10.97 12.01 7.49 11.31 6.22 8.94 4.96 6.58 3.77 4.4 4.74 2.2 5.42 0.65 7.63-0.11 8.99 0.22Z" stroke="#5B9BD5" stroke-width="0.729345" fill="none"/><path d="M4.53 2.34C5.04 0.99 5.7 0.74 5.7 0.74 5.7 0.74 6.33 0.05 8.1 0.05 9.78 0.05 11.28 0.93 11.96 1.68 12.92 2.72 12.52 3.29 12.52 3.29L12.51 3.27C12.48 3.19 12.32 2.92 12 3.06 11.55 3.24 11.36 3.6 10.99 3.73 8.37 4.64 7.85 3.95 7.63 5.15 7.41 6.37 7.3 6.8 6.75 6.61 5.87 6.31 5.91 6.5 5.48 7.09 5.65 7.65 5.85 8.26 6.07 8.8 6.07 8.8 6.05 9.35 5.04 7.14 4.66 6.23 3.68 5 4.53 2.34Z" stroke="#5B9BD5" stroke-width="0.729345" fill="none"/><path d="M6.42 6.91C6.42 6.91 6.04 6.11 5.18 6.34 4.32 6.58 4.48 7.56 5.41 8.44 6.34 9.32 6.56 8.28 6.61 8.21 6.65 8.16 6.19 7.53 6.42 6.91Z" stroke="#5B9BD5" stroke-width="0.729345" fill="none"/><path d="M6.11 7.03C6.11 7.03 5.73 6.58 5.36 6.78 4.79 7.08 5.61 8.01 5.69 8.13 5.77 8.25 6.19 8.2 6.24 7.92 6.28 7.63 5.81 7.39 6.11 7.03Z" stroke="#5B9BD5" stroke-width="0.729345" fill="none"/><path d="M7.49 5.87C7.49 5.87 7.26 6.82 7.36 7.66 7.46 8.5 7.16 9.4 7.16 9.4 7.16 9.4 7.33 8.32 7.16 7.7 7 7.08 6.67 6.74 6.72 6.4 6.77 6.06 7.49 5.87 7.49 5.87Z" stroke="#5B9BD5" stroke-width="0.729345" fill="none"/><path d="M13.96 18.44C13.94 18.45 13.91 18.45 13.87 18.45L14.27 18.47 14.91 18.22 14.16 17.88C14.16 17.88 13.26 16.96 13.18 16.8 13.12 16.69 13.03 16.33 12.98 16.1 12.83 16.28 12.94 16.43 13.03 16.75 13.12 17.07 13.74 17.61 13.74 17.61L14.36 18.23C14.35 18.22 14.28 18.34 13.96 18.44Z" stroke="#5B9BD5" stroke-width="0.729345" fill="none"/><path d="M11.81 19.03C12.34 19.11 13.9 19.21 13.9 19.21L10.78 18.75C10.79 18.79 10.79 18.83 10.78 18.85 11.02 18.88 11.41 18.97 11.81 19.03Z" stroke="#5B9BD5" stroke-width="0.729345" fill="none"/><path d="M10.52 19.55C10.66 19.67 10.95 19.69 11 19.69L11.01 19.69C11.15 19.7 11.77 19.82 12.28 19.87 12.76 19.91 13.62 20.01 13.75 20.03 13.52 19.99 11 19.59 10.74 19.59 10.67 19.58 10.59 19.57 10.52 19.55Z" stroke="#5B9BD5" stroke-width="0.729345" fill="none"/></g><path d="M2.02 14.52C2.02 14.52 1.17 15.22 1.17 16.17 1.17 17.12 2.12 21.49 2.43 22.31 3.94 22.49 6.26 21.8 6.32 21.34 6.37 20.88 5.76 17.76 5.22 16.36 4.68 14.96 3.67 13.83 2.02 14.52Z" stroke="#5B9BD5" stroke-width="0.729345" fill="none"/></g></svg>