<svg width="72.43" height="58.94" viewBox="0 0 72.43 58.94" xmlns="http://www.w3.org/2000/svg" xmlns:xlink="http://www.w3.org/1999/xlink" overflow="hidden"><defs></defs><g><path d="M20.84 47.97 0 35.94 20.84 23.91 34.45 47.97Z" fill="#F5F2E8"/><g><g><path d="M34.45 47.97 55.29 35.94 55.29 12.03 34.45 24.06Z" fill="#C99A6B"/><path d="M55.29 12.03 34.45 24.06 45.69 18.05Z" fill="#87623F"/><path d="M34.45 47.97 13.61 35.94 13.61 12.03 34.45 24.06Z" fill="#AE835B"/><path d="M34.45 24.06 13.61 12.03 34.45 0 55.29 12.03Z" fill="#E8B687"/><path d="M43.84 28.09 47.19 26.15 47.19 16.71 43.84 18.64Z" fill="#D9AF84"/><path d="M43.84 18.64 23 6.61 26.35 4.68 47.19 16.71Z" fill="#EBCBAB"/><path d="M13.61 12.03 34.45 24.06 23.2 18.05Z" fill="#87623F"/><path d="M25.41 28.29 22.06 26.36 22.06 16.91 25.41 18.84Z" fill="#9C754E"/><path d="M25.41 18.84 46.25 6.81 42.9 4.88 22.06 16.91Z" fill="#54493E"/><path d="M23.86 17.95 44.7 5.92 44.47 5.79 23.63 17.82Z" fill="#D1A986"/><path d="M25.41 18.84 25.41 19.23 23.37 18.14 22.06 17.32 22.06 16.91Z" fill="#AE835B"/></g><path d="M45.69 18.05 43.84 19.04 43.84 18.64 47.19 16.71 47.19 17.11Z" fill="#AE835B"/></g><g><g><path d="M33.18 29.62 28.78 27.08 28.78 22.03 33.18 24.57 33.18 29.62ZM29.07 26.92 32.89 29.12 32.89 24.74 29.07 22.53 29.07 26.92Z" fill="#87623F"/></g><g><path d="M31.46 28.01 30.49 27.45 30.49 24.91 31.46 25.46Z" fill="#87623F"/><path d="M32.42 26.5 29.54 24.84 30.98 23.93Z" fill="#87623F"/></g></g><g><path d="M45.84 32.59 45.84 39.36 54.79 34.19 54.79 27.42Z" fill="#FFF8E6"/><path d="M70.11 22.03 70.09 22.04C69.65 21.79 69.1 21.75 68.63 22.02L64.2 24.58C63.82 21.32 62.41 18.84 60.11 17.51 58.17 16.39 55.83 16.23 53.32 16.98L53.87 10.86 52.28 9.86C52.17 9.77 52.05 9.69 51.92 9.63L51.9 9.63 51.9 9.64C51.72 9.57 51.54 9.53 51.34 9.53 50.46 9.53 49.75 10.24 49.75 11.12L49.75 18.64C42.96 22.82 37.7 32.03 37.68 39.9L32.56 42.86C31.85 43.27 31.61 44.17 32.02 44.88 32.13 45.07 32.29 45.22 32.46 45.34L32.46 45.35 34.33 46.52 38.2 43.83C38.85 46.08 40.1 47.81 41.88 48.85 43.04 49.52 44.34 49.85 45.73 49.85 47 49.85 48.35 49.55 49.74 49L49.74 56.33C49.74 56.87 50.03 57.33 50.44 57.62L50.44 57.65 52.3 58.82 52.42 57.48C52.73 57.19 52.93 56.78 52.93 56.33L52.93 51.71 53.34 47.01C59.04 42.95 63.44 35.41 64.19 28.47L68.05 25.78 70.11 24.59C70.37 24.44 70.55 24.21 70.67 23.95L71.83 23.14 70.11 22.03ZM56.89 28.8C56.18 29.21 55.94 30.11 56.35 30.82 56.47 31.02 56.62 31.17 56.8 31.29L56.8 31.3 58.5 32.39 59.51 30.77 59.44 30.74 60.69 30.02C60.65 30.21 60.63 30.4 60.58 30.59 60.56 30.67 60.53 30.76 60.51 30.84 60.35 31.45 60.17 32.06 59.96 32.66 59.93 32.74 59.91 32.82 59.88 32.9 59.64 33.56 59.37 34.22 59.07 34.87 59.03 34.95 59 35.02 58.96 35.1 58.33 36.44 57.57 37.75 56.72 38.97 56.69 39.01 56.67 39.04 56.64 39.08 55.75 40.34 54.77 41.51 53.71 42.53 53.45 42.79 53.18 43.03 52.9 43.27L52.9 43.06 53.92 40.95 52.15 39.8 52.14 39.82C51.9 39.67 51.62 39.55 51.31 39.55 50.43 39.55 49.72 40.26 49.72 41.14L49.72 45.49C48.25 46.27 46.86 46.67 45.64 46.65 45.37 46.65 45.11 46.62 44.86 46.58 44.36 46.49 43.89 46.33 43.46 46.08 43.17 45.91 42.91 45.7 42.66 45.46 42.61 45.41 42.56 45.36 42.5 45.3 42.26 45.04 42.04 44.76 41.86 44.44 41.86 44.44 41.86 44.43 41.85 44.43 41.66 44.1 41.5 43.73 41.36 43.33 41.34 43.28 41.33 43.24 41.31 43.19 41.17 42.78 41.06 42.33 40.99 41.86 40.97 41.71 40.95 41.56 40.93 41.4L45.75 38.62C45.77 38.61 45.78 38.59 45.79 38.58L46.17 38.78 47.57 37.25 45.66 36 45.63 36.04C45.21 35.85 44.72 35.84 44.29 36.08L41 37.98C41.05 37.59 41.11 37.2 41.18 36.81 41.18 36.79 41.19 36.76 41.19 36.74L41.19 36.74C41.62 34.53 42.44 32.27 43.57 30.14L43.57 30.14C44.01 29.31 44.49 28.51 45.01 27.73L45.01 27.73C46.36 25.72 47.97 23.92 49.73 22.51L49.73 26.29C49.73 26.91 50.09 27.43 50.61 27.7L50.6 27.71 52.25 28.76 53.33 27.27 52.76 26.96C52.86 26.75 52.92 26.53 52.92 26.29L52.92 20.52C52.94 20.51 52.96 20.5 52.97 20.49 53.75 20.14 54.5 19.91 55.21 19.79 55.56 19.73 55.91 19.7 56.24 19.7 56.78 19.7 57.28 19.81 57.75 19.97 58.01 20.06 58.27 20.14 58.5 20.27 60.17 21.24 61.1 23.4 61.11 26.35L56.89 28.8Z" fill="#FF4C4A"/><g><path d="M47.4 37.6 46.69 38.01 46.69 32.95 47.4 32.54Z" fill="#AB9589"/><path d="M52.61 34.59 51.9 35 51.9 29.95 52.61 29.53Z" fill="#AB9589"/><path d="M48.19 37.14 47.75 37.4 47.75 32.34 48.19 32.08Z" fill="#AB9589"/><path d="M51.59 35.18 51.15 35.43 51.15 30.38 51.59 30.12Z" fill="#AB9589"/><path d="M48.82 36.78 48.51 36.96 48.51 31.9 48.82 31.72Z" fill="#AB9589"/><path d="M49.54 36.37 49.23 36.54 49.23 31.49 49.54 31.31Z" fill="#AB9589"/><path d="M53.23 34.24 52.92 34.41 52.92 29.36 53.23 29.18Z" fill="#AB9589"/><path d="M53.94 33.82 53.42 34.12 53.42 29.07 53.94 28.76Z" fill="#AB9589"/><path d="M50.05 36.07 49.74 36.25 49.74 31.19 50.05 31.01Z" fill="#AB9589"/><path d="M50.84 35.61 50.3 35.93 50.3 30.87 50.84 30.55Z" fill="#AB9589"/></g><g><g><path d="M47.31 50.87C45.92 50.87 44.62 50.54 43.46 49.87 40.75 48.31 39.26 45.15 39.26 40.97 39.26 32.91 44.76 23.42 51.78 19.37 55.44 17.26 58.96 16.96 61.69 18.54 64.4 20.11 65.89 23.26 65.89 27.44 65.89 35.5 60.39 44.99 53.37 49.04 51.27 50.25 49.21 50.87 47.31 50.87ZM57.84 20.73C56.51 20.73 54.99 21.2 53.38 22.13 47.35 25.61 42.45 34.06 42.45 40.97 42.45 43.95 43.38 46.13 45.06 47.11 46.76 48.09 49.15 47.8 51.78 46.28 57.81 42.8 62.71 34.35 62.71 27.44 62.71 24.46 61.78 22.28 60.1 21.3 59.44 20.92 58.68 20.73 57.84 20.73Z" fill="#FF7270"/></g><g><path d="M52.92 28.91 52.92 28.91C52.04 28.91 51.33 28.2 51.33 27.32L51.33 12.14C51.33 11.26 52.04 10.55 52.92 10.55L52.92 10.55C53.8 10.55 54.51 11.26 54.51 12.14L54.51 27.32C54.51 28.2 53.8 28.91 52.92 28.91Z" fill="#FF7270"/></g><g><path d="M52.92 58.94 52.92 58.94C52.04 58.94 51.33 58.23 51.33 57.35L51.33 42.16C51.33 41.28 52.04 40.57 52.92 40.57L52.92 40.57C53.8 40.57 54.51 41.28 54.51 42.16L54.51 57.34C54.51 58.22 53.8 58.94 52.92 58.94Z" fill="#FF7270"/></g><g><path d="M57.94 31.84 57.94 31.84C57.53 31.13 57.77 30.23 58.48 29.82L70.22 23.04C70.93 22.63 71.83 22.87 72.24 23.58L72.24 23.58C72.65 24.29 72.41 25.19 71.7 25.6L59.96 32.38C59.25 32.79 58.34 32.55 57.94 31.84Z" fill="#FF7270"/></g><g><path d="M33.6 45.89 33.6 45.89C33.19 45.18 33.43 44.28 34.14 43.87L45.88 37.09C46.59 36.68 47.49 36.92 47.9 37.63L47.9 37.63C48.31 38.34 48.07 39.24 47.36 39.65L35.62 46.43C34.91 46.84 34.01 46.6 33.6 45.89Z" fill="#FF7270"/></g></g></g></g></svg>