<svg width="44.83" height="38.74" viewBox="0 0 44.83 38.74" xmlns="http://www.w3.org/2000/svg" xmlns:xlink="http://www.w3.org/1999/xlink" overflow="hidden"><defs></defs><g><g><path d="M16.83 38.74 33.65 29.02 33.65 9.71 16.83 19.43Z" fill="#C99A6B"/><path d="M16.83 38.74 0 29.02 0 9.71 16.83 19.43Z" fill="#AE835B"/><g><g><path d="M15.68 24.01 12.13 21.96 12.13 17.88 15.68 19.93 15.68 24.01ZM12.36 21.82 15.44 23.6 15.44 20.06 12.36 18.28 12.36 21.82Z" fill="#87623F"/></g><g><path d="M14.29 22.7 13.51 22.25 13.51 20.2 14.29 20.65Z" fill="#87623F"/><path d="M15.06 21.49 12.74 20.14 13.9 19.41Z" fill="#87623F"/></g></g><path d="M16.83 19.43 0 9.71 16.83 0 33.65 9.71Z" fill="#E8B687"/><path d="M24.41 22.68 27.11 21.12 27.11 13.49 24.41 15.05Z" fill="#D9AF84"/><path d="M24.41 15.05 7.58 5.34 10.29 3.78 27.11 13.49Z" fill="#EBCBAB"/><path d="M25.66 14.33 8.83 4.61 8.99 4.53 25.81 14.24Z" fill="#D1A986"/><path d="M0 9.71 16.83 19.43 7.75 14.57Z" fill="#87623F"/></g></g><g><path d="M31.83 13.56C34.84 11.91 38.81 12.29 41.47 14.44 43.78 16.25 45.09 19.24 44.79 22.17 44.52 24.92 43.23 27.44 41.84 29.78 40.21 32.36 38.31 34.83 35.91 36.74 32.87 34.13 30.43 30.86 28.68 27.26 27.77 25.31 27.03 23.19 27.12 21 27.2 17.92 29.08 14.95 31.83 13.56ZM34.75 18.12C34.86 20.37 34.96 22.61 35.05 24.86 35.67 24.86 36.29 24.86 36.91 24.86 37 22.61 37.11 20.36 37.19 18.1 36.38 18.11 35.56 18.11 34.75 18.12ZM35.04 26.17C34.28 26.67 34.82 28.06 35.7 28.07 36.44 28.29 37.42 27.65 37.22 26.83 37.19 25.77 35.68 25.47 35.04 26.17Z" fill="#FD1B40"/></g></svg>