<svg width="85.19" height="63.42" viewBox="0 0 85.19 63.42" xmlns="http://www.w3.org/2000/svg" xmlns:xlink="http://www.w3.org/1999/xlink" overflow="hidden"><defs></defs><g><path d="M16.72 53.45 18.01 52.44C18.48 52.07 19.14 52.05 19.48 52.39 19.82 52.73 19.72 53.3 19.25 53.66L17.96 54.67C17.49 55.04 16.83 55.06 16.49 54.73 16.15 54.39 16.25 53.82 16.72 53.45Z" stroke="#5B9BD5" stroke-width="0.858586" fill="none"/><g><g><g><path d="M82.17 18.22 81.99 18.75 73.42 16.11 46.52 0.59Z" stroke="#5B9BD5" stroke-width="0.858586" fill="none"/><path d="M46.52 0.6 18.43 16.81 6.82 17.54 6.65 16.96Z" stroke="#5B9BD5" stroke-width="0.858586" fill="none"/><path d="M28.1 23.73 45.33 55.47 26.9 55.47 0 39.95Z" stroke="#5B9BD5" stroke-width="0.858586" fill="none"/><path d="M45.33 55.47 73.42 39.25 73.42 15.52 45.33 31.74Z" stroke="#5B9BD5" stroke-width="0.858586" fill="none"/><path d="M73.42 15.52 45.33 31.74 60.19 23.63Z" stroke="#5B9BD5" stroke-width="0.858586" fill="none"/><path d="M45.33 55.47 18.42 39.93 18.42 16.2 45.33 31.74Z" stroke="#5B9BD5" stroke-width="0.858586" fill="none"/><g><g><path d="M43.93 53.25 37.89 49.76 37.89 42.83 43.93 46.32 43.93 53.25ZM38.29 49.54 43.53 52.57 43.53 46.56 38.29 43.53 38.29 49.54Z" stroke="#5B9BD5" stroke-width="0.858586" fill="none"/></g><g><path d="M41.58 51.03 40.25 50.26 40.25 46.78 41.58 47.54Z" stroke="#5B9BD5" stroke-width="0.858586" fill="none"/><path d="M42.89 48.96 38.94 46.68 40.92 45.44Z" stroke="#5B9BD5" stroke-width="0.858586" fill="none"/></g></g><path d="M9.67 29.04 45.33 31.74 45.33 32.33 36.76 44.87 9.87 29.35Z" stroke="#5B9BD5" stroke-width="0.858586" fill="none"/><path d="M84.97 30.19 56.89 46.41 45.33 32.32 45.33 31.74 85.19 29.86Z" stroke="#5B9BD5" stroke-width="0.858586" fill="none"/><path d="M18.43 16.22 45.33 31.74 36.57 44.56 9.67 29.04Z" stroke="#5B9BD5" stroke-width="0.858586" fill="none"/><path d="M55.28 2.7 82.17 18.22 73.42 15.52 46.52 0Z" stroke="#5B9BD5" stroke-width="0.858586" fill="none"/><path d="M46.53 0 73.43 15.52 45.33 31.74 18.43 16.22Z" stroke="#5B9BD5" stroke-width="0.858586" fill="none"/><path d="M19.13 16.2 46.52 0.4 72.7 15.5 45.32 31.31Z" stroke="#5B9BD5" stroke-width="0.858586" fill="none"/><path d="M85.19 29.86 57.11 46.08 45.33 31.73 73.42 15.52Z" stroke="#5B9BD5" stroke-width="0.858586" fill="none"/><path d="M46.52 0.01 18.43 16.22 6.65 16.96 34.74 0.75Z" stroke="#5B9BD5" stroke-width="0.858586" fill="none"/><path d="M60.13 23.29 59.9 23.41 59.81 23.36 60.04 23.23Z" stroke="#5B9BD5" stroke-width="0.858586" fill="none"/></g></g><path d="M40.06 28.28 45.32 31.31 51.78 27.58 46.52 24.55Z" stroke="#5B9BD5" stroke-width="0.858586" fill="none"/><path d="M46.52 24.55 46.52 0.4 72.7 15.5 51.78 27.58Z" stroke="#5B9BD5" stroke-width="0.858586" fill="none"/><path d="M65.55 19.64 45.32 31.31 33.08 24.25 30.04 22.49 26.82 20.64 29.45 20.05 33.64 16.54 38.69 14.94 41.9 12.22 46.52 10.71 49.13 11.2 51.78 12.86 55.56 13.99 59.09 15.53 62.21 18.13Z" stroke="#5B9BD5" stroke-width="0.858586" fill="none"/></g><path d="M35.18 19.43 33.34 19.43C32.67 19.43 32.13 19.98 32.13 20.64 32.13 21.31 32.68 21.85 33.34 21.85L35.18 21.85C35.85 21.85 36.39 21.3 36.39 20.64 36.39 19.97 35.85 19.43 35.18 19.43Z" stroke="#5B9BD5" stroke-width="0.858586" fill="none"/><path d="M42.95 27.62 44.59 26.78C45.18 26.48 45.42 25.74 45.12 25.15 44.82 24.56 44.08 24.32 43.49 24.62L41.85 25.46C41.26 25.76 41.02 26.5 41.32 27.09 41.62 27.69 42.35 27.92 42.95 27.62Z" stroke="#5B9BD5" stroke-width="0.858586" fill="none"/><path d="M48.68 17.81 49.75 19.31C50.14 19.85 50.9 19.98 51.44 19.59 51.98 19.2 52.11 18.44 51.72 17.9L50.65 16.4C50.26 15.86 49.5 15.73 48.96 16.12 48.42 16.51 48.29 17.27 48.68 17.81Z" stroke="#5B9BD5" stroke-width="0.858586" fill="none"/><path d="M56.23 21.26 57.87 20.42C58.46 20.12 58.7 19.38 58.4 18.79 58.1 18.2 57.36 17.96 56.77 18.26L55.13 19.1C54.54 19.4 54.3 20.14 54.6 20.73 54.9 21.33 55.63 21.56 56.23 21.26Z" stroke="#5B9BD5" stroke-width="0.858586" fill="none"/><path d="M47.51 26.61 49.32 26.95C49.98 27.07 50.61 26.64 50.74 25.98 50.86 25.32 50.43 24.69 49.77 24.56L47.96 24.22C47.3 24.1 46.67 24.53 46.54 25.19 46.41 25.85 46.85 26.49 47.51 26.61Z" stroke="#5B9BD5" stroke-width="0.858586" fill="none"/><path d="M44.06 20.33 42.66 21.52C42.15 21.95 42.09 22.72 42.52 23.23 42.95 23.74 43.72 23.8 44.23 23.37L45.63 22.18C46.14 21.75 46.2 20.98 45.77 20.47 45.34 19.96 44.57 19.9 44.06 20.33Z" stroke="#5B9BD5" stroke-width="0.858586" fill="none"/><path d="M46.94 11 45.54 12.19C45.03 12.62 44.97 13.39 45.4 13.9 45.83 14.41 46.6 14.47 47.11 14.04L48.51 12.85C49.02 12.42 49.08 11.65 48.65 11.14 48.22 10.63 47.45 10.57 46.94 11Z" stroke="#5B9BD5" stroke-width="0.858586" fill="none"/><path d="M54.19 20.44 52.64 19.45C52.08 19.09 51.32 19.26 50.96 19.82 50.6 20.38 50.77 21.14 51.33 21.5L52.88 22.49C53.44 22.85 54.2 22.68 54.56 22.12 54.92 21.55 54.75 20.8 54.19 20.44Z" stroke="#5B9BD5" stroke-width="0.858586" fill="none"/><path d="M56.66 20.84 55.39 22.18C54.93 22.66 54.95 23.44 55.43 23.9 55.91 24.36 56.69 24.34 57.15 23.86L58.42 22.52C58.88 22.04 58.86 21.26 58.38 20.8 57.89 20.34 57.12 20.36 56.66 20.84Z" stroke="#5B9BD5" stroke-width="0.858586" fill="none"/><path d="M51.63 13.46 50.08 12.47C49.52 12.11 48.76 12.28 48.4 12.84 48.04 13.4 48.21 14.16 48.77 14.52L50.32 15.51C50.88 15.87 51.64 15.7 52 15.14 52.36 14.58 52.19 13.82 51.63 13.46Z" stroke="#5B9BD5" stroke-width="0.858586" fill="none"/><path d="M37.75 21.75 35.91 21.66C35.24 21.63 34.67 22.15 34.64 22.81 34.61 23.48 35.13 24.05 35.79 24.08L37.63 24.17C38.3 24.2 38.87 23.68 38.9 23.02 38.94 22.36 38.42 21.78 37.75 21.75Z" stroke="#5B9BD5" stroke-width="0.858586" fill="none"/><path d="M43.5 12.62 41.66 12.53C40.99 12.5 40.42 13.02 40.39 13.68 40.36 14.35 40.88 14.92 41.54 14.95L43.38 15.04C44.05 15.07 44.62 14.55 44.65 13.89 44.69 13.22 44.17 12.65 43.5 12.62Z" stroke="#5B9BD5" stroke-width="0.858586" fill="none"/><path d="M55.3 14.7 53.68 15.58C53.09 15.9 52.88 16.64 53.2 17.23 53.52 17.82 54.26 18.03 54.85 17.71L56.47 16.83C57.06 16.51 57.27 15.77 56.95 15.18 56.63 14.6 55.88 14.38 55.3 14.7Z" stroke="#5B9BD5" stroke-width="0.858586" fill="none"/><path d="M45.6 27.27 43.79 27.58C43.13 27.69 42.69 28.33 42.8 28.98 42.91 29.64 43.55 30.08 44.2 29.97L46.01 29.66C46.67 29.55 47.11 28.91 47 28.26 46.89 27.6 46.26 27.16 45.6 27.27Z" stroke="#5B9BD5" stroke-width="0.858586" fill="none"/><path d="M33.75 22.96C33.84 23.5 33.55 24.03 33.09 24.25L30.05 22.49C30.19 22.38 30.36 22.31 30.54 22.28L32.35 21.97C33.01 21.85 33.64 22.31 33.75 22.96Z" stroke="#5B9BD5" stroke-width="0.858586" fill="none"/><path d="M62.19 17.9 60.38 18.21C59.72 18.32 59.28 18.96 59.39 19.61 59.5 20.27 60.14 20.71 60.79 20.6L62.6 20.29C63.26 20.18 63.7 19.54 63.59 18.89 63.48 18.23 62.85 17.79 62.19 17.9Z" stroke="#5B9BD5" stroke-width="0.858586" fill="none"/><path d="M44 15.06 42.19 15.37C41.53 15.48 41.09 16.12 41.2 16.77 41.31 17.43 41.95 17.87 42.6 17.76L44.41 17.44C45.07 17.33 45.51 16.69 45.4 16.04 45.29 15.39 44.66 14.95 44 15.06Z" stroke="#5B9BD5" stroke-width="0.858586" fill="none"/><path d="M38.29 16.03 36.45 15.94C35.78 15.91 35.21 16.43 35.18 17.09 35.15 17.76 35.67 18.33 36.33 18.36L38.17 18.45C38.84 18.48 39.41 17.96 39.44 17.3 39.47 16.64 38.95 16.07 38.29 16.03Z" stroke="#5B9BD5" stroke-width="0.858586" fill="none"/><path d="M41.34 21.33 39.79 20.34C39.23 19.98 38.47 20.15 38.11 20.71 37.75 21.27 37.92 22.03 38.48 22.39L40.03 23.38C40.59 23.74 41.35 23.57 41.71 23.01 42.07 22.44 41.9 21.69 41.34 21.33Z" stroke="#5B9BD5" stroke-width="0.858586" fill="none"/><path d="M45.09 20.1 46.86 19.58C47.5 19.39 47.87 18.72 47.68 18.07 47.49 17.43 46.82 17.06 46.17 17.25L44.4 17.77C43.76 17.96 43.39 18.64 43.58 19.28 43.77 19.91 44.45 20.28 45.09 20.1Z" stroke="#5B9BD5" stroke-width="0.858586" fill="none"/><path d="M48.7 24.1 50.47 23.58C51.11 23.39 51.48 22.72 51.29 22.07 51.1 21.43 50.43 21.06 49.78 21.25L48.01 21.77C47.37 21.96 47 22.64 47.19 23.28 47.38 23.91 48.06 24.28 48.7 24.1Z" stroke="#5B9BD5" stroke-width="0.858586" fill="none"/><path d="M48.83 15.73 49.72 14.12C50.04 13.54 49.83 12.79 49.25 12.47 48.67 12.15 47.92 12.36 47.6 12.94L46.71 14.55C46.39 15.13 46.6 15.88 47.18 16.2 47.76 16.52 48.5 16.31 48.83 15.73Z" stroke="#5B9BD5" stroke-width="0.858586" fill="none"/><path d="M30.93 20.18 32.24 18.89C32.72 18.42 32.72 17.65 32.25 17.17 31.78 16.69 31.01 16.69 30.53 17.16L29.22 18.45C28.74 18.92 28.74 19.69 29.21 20.17 29.68 20.65 30.46 20.65 30.93 20.18Z" stroke="#5B9BD5" stroke-width="0.858586" fill="none"/><path d="M53.33 25.65 55.1 25.13C55.74 24.94 56.11 24.27 55.92 23.62 55.73 22.98 55.06 22.61 54.41 22.8L52.64 23.32C52 23.51 51.63 24.19 51.82 24.83 52.01 25.47 52.69 25.84 53.33 25.65Z" stroke="#5B9BD5" stroke-width="0.858586" fill="none"/><path d="M12.8 41.8 10.96 41.8C10.29 41.8 9.75 42.35 9.75 43.01 9.75 43.68 10.3 44.22 10.96 44.22L12.8 44.22C13.47 44.22 14.01 43.67 14.01 43.01 14.02 42.35 13.47 41.8 12.8 41.8Z" stroke="#5B9BD5" stroke-width="0.858586" fill="none"/><path d="M75.29 50.39 77.1 50.04C77.76 49.91 78.19 49.27 78.06 48.62 77.93 47.96 77.29 47.53 76.64 47.66L74.82 48C74.17 48.13 73.73 48.77 73.86 49.42 73.99 50.08 74.63 50.51 75.29 50.39Z" stroke="#5B9BD5" stroke-width="0.858586" fill="none"/><path d="M36.98 61.06 38.62 60.22C39.21 59.92 39.45 59.18 39.15 58.59 38.85 58 38.11 57.76 37.52 58.06L35.88 58.9C35.29 59.2 35.05 59.94 35.35 60.53 35.65 61.12 36.38 61.36 36.98 61.06Z" stroke="#5B9BD5" stroke-width="0.858586" fill="none"/><path d="M26.37 62.21 28.18 62.55C28.84 62.67 29.47 62.24 29.6 61.58 29.72 60.92 29.29 60.29 28.63 60.16L26.82 59.82C26.16 59.7 25.53 60.13 25.4 60.79 25.28 61.45 25.71 62.09 26.37 62.21Z" stroke="#5B9BD5" stroke-width="0.858586" fill="none"/><path d="M46.64 60.09 45.24 61.28C44.73 61.71 44.67 62.48 45.1 62.99 45.53 63.5 46.3 63.56 46.81 63.13L48.21 61.94C48.72 61.51 48.78 60.74 48.35 60.23 47.92 59.72 47.15 59.66 46.64 60.09Z" stroke="#5B9BD5" stroke-width="0.858586" fill="none"/><path d="M34.18 59.7 32.63 58.71C32.07 58.35 31.31 58.52 30.95 59.08 30.59 59.64 30.76 60.4 31.32 60.76L32.87 61.75C33.43 62.11 34.19 61.94 34.55 61.38 34.91 60.82 34.75 60.06 34.18 59.7Z" stroke="#5B9BD5" stroke-width="0.858586" fill="none"/><path d="M22.74 53.48 24.55 53.82C25.21 53.94 25.84 53.51 25.97 52.85 26.09 52.19 25.66 51.56 25 51.43L23.19 51.09C22.53 50.97 21.9 51.4 21.77 52.06 21.64 52.72 22.08 53.36 22.74 53.48Z" stroke="#5B9BD5" stroke-width="0.858586" fill="none"/><path d="M17.94 51.37 16.54 52.56C16.03 52.99 15.97 53.76 16.4 54.27 16.83 54.78 17.6 54.84 18.11 54.41L19.51 53.22C20.02 52.79 20.08 52.02 19.65 51.51 19.22 51 18.45 50.94 17.94 51.37Z" stroke="#5B9BD5" stroke-width="0.858586" fill="none"/><path d="M31.04 55.63 29.49 54.64C28.93 54.28 28.17 54.45 27.81 55.01 27.45 55.57 27.62 56.33 28.18 56.69L29.73 57.68C30.29 58.04 31.05 57.87 31.41 57.31 31.77 56.74 31.61 55.99 31.04 55.63Z" stroke="#5B9BD5" stroke-width="0.858586" fill="none"/><path d="M69.12 52.12 70.81 52.86C71.42 53.13 72.14 52.85 72.41 52.24 72.68 51.63 72.4 50.91 71.79 50.64L70.1 49.9C69.49 49.63 68.77 49.91 68.5 50.52 68.23 51.13 68.51 51.85 69.12 52.12Z" stroke="#5B9BD5" stroke-width="0.858586" fill="none"/><path d="M67.2 58.04 68.86 57.24C69.46 56.95 69.72 56.22 69.43 55.62 69.14 55.02 68.41 54.76 67.81 55.05L66.15 55.85C65.55 56.14 65.29 56.87 65.58 57.47 65.87 58.07 66.6 58.32 67.2 58.04Z" stroke="#5B9BD5" stroke-width="0.858586" fill="none"/><path d="M17.52 47.31 15.68 47.22C15.01 47.19 14.44 47.71 14.41 48.37 14.38 49.04 14.9 49.61 15.56 49.64L17.4 49.73C18.07 49.76 18.64 49.24 18.67 48.58 18.7 47.91 18.18 47.34 17.52 47.31Z" stroke="#5B9BD5" stroke-width="0.858586" fill="none"/><path d="M10.42 47.4 8.87 46.41C8.31 46.05 7.55 46.22 7.19 46.78 6.83 47.34 7 48.09 7.56 48.45L9.11 49.44C9.67 49.8 10.43 49.63 10.79 49.07 11.15 48.51 10.98 47.76 10.42 47.4Z" stroke="#5B9BD5" stroke-width="0.858586" fill="none"/><path d="M74.59 54.75 76.43 54.74C77.1 54.74 77.64 54.19 77.64 53.52 77.64 52.85 77.09 52.31 76.42 52.31L74.58 52.32C73.91 52.32 73.37 52.87 73.37 53.54 73.38 54.21 73.93 54.75 74.59 54.75Z" stroke="#5B9BD5" stroke-width="0.858586" fill="none"/></g></svg>