<svg width="179.13" height="93.75" viewBox="0 0 179.13 93.75" xmlns="http://www.w3.org/2000/svg" xmlns:xlink="http://www.w3.org/1999/xlink" overflow="hidden"><defs></defs><g><g><g><path d="M38.68 5.27C39.76 2.67 42.62 1.8 44.55 0 46.31 1.96 49.23 2.75 50.23 5.37 50.1 7.16 51.12 9.03 50.21 10.72 49.86 11.91 50.09 13.18 50.05 14.41 46.69 12.68 42.39 12.42 39.09 14.41 39.08 13.98 39.05 13.12 39.03 12.69 40.45 12.04 41.99 11.68 43.44 11.1 42.26 9.83 40.6 10.97 39.26 11.34 38.93 10.8 38.59 10.25 38.26 9.7 38.66 8.25 38.5 6.74 38.68 5.27ZM39.18 6.04C40.03 5.86 40.88 5.67 41.73 5.47 41.77 5.67 41.83 6.08 41.86 6.28 40.82 6.52 39.64 6.68 39.16 7.81 40.01 7.66 40.86 7.5 41.71 7.32 41.75 7.51 41.84 7.9 41.89 8.09 40.78 8.41 39.15 8.44 38.99 9.94 42.5 8.51 46.51 8.39 50.01 9.94 50.26 7.89 47.48 8.83 47.04 7.35 48.05 7.32 49.04 7.56 50.04 7.65 49.4 6.8 48.42 6.44 47.42 6.19 47.42 5.98 47.4 5.57 47.39 5.37 48.27 5.57 49.14 5.76 50.02 5.91 49.11 4.62 47.5 4.6 46.1 4.35 46.1 5.34 46.1 6.32 46.11 7.31 45.16 7.42 44.19 7.59 43.24 7.4 42.93 6.47 43.11 5.46 43.05 4.5 41.7 4.78 39.92 4.57 39.18 6.04Z" fill="#2B337F"/></g><path d="M96.16 7.18C97.09 5.46 98.85 4.03 100.88 4.01 103.87 3.95 106.85 4.02 109.84 3.99 108.52 6.2 107.19 8.42 105.83 10.61 104.98 11.97 103.41 12.77 101.82 12.74 98.9 12.78 95.99 12.76 93.07 12.73 94.12 10.89 95.13 9.03 96.16 7.18Z" fill="#2B337F"/><g><path d="M141.18 12.98C142.3 12.73 143.81 12.83 144.36 14.02 145.14 15.48 144.05 17.42 142.4 17.5 140.82 17.79 139.31 16.13 139.71 14.59 139.95 13.89 140.42 13.18 141.18 12.98ZM140.45 15.07C140.32 16.06 141.27 16.62 141.89 17.2 143.37 17.06 144.08 15.56 143.64 14.23 142.88 12.8 140.33 13.4 140.45 15.07Z" fill="#2B337F"/></g><path d="M141.33 16.63C141.25 15.61 141.2 14.57 141.5 13.58 141.69 14 142.05 14.83 142.24 15.25 142.23 14.87 142.21 14.12 142.2 13.75 143.8 13.86 142.98 15.37 142.7 16.32 142.56 16.15 142.29 15.8 142.15 15.63 141.95 15.87 141.54 16.38 141.33 16.63Z" fill="#2B337F"/><g><path d="M56.88 20.59C60.2 16.83 65.59 15.33 70.46 16.01 73.49 16.43 76.14 18.3 77.77 20.86 77.8 19.5 77.8 18.14 77.79 16.78 81.4 16.7 85.01 16.79 88.62 16.73 88.74 24.79 88.64 32.85 88.67 40.91 88.61 44.46 88.98 48.12 87.8 51.54 86.71 55.07 83.74 57.79 80.33 59.05 76.22 60.56 71.75 60.63 67.43 60.31 63.77 60.01 59.89 59.12 57.17 56.49 55.39 54.82 54.48 52.45 54.09 50.09 57.92 50.13 61.75 50.02 65.58 50.16 65.73 51.99 67.37 53.22 69.11 53.4 71.58 53.74 74.71 53.92 76.44 51.76 78.11 49.24 77.73 46.02 77.75 43.14 75.65 45.36 73.03 47.24 69.91 47.61 65.37 48.08 60.41 46.94 57.12 43.62 54.33 40.8 53.19 36.78 52.93 32.91 52.69 28.53 53.88 23.9 56.88 20.59ZM68.35 24.44C66.05 25.37 64.67 27.81 64.47 30.21 64.31 32.4 64.26 34.76 65.48 36.69 67.56 40.39 73.34 40.59 76.08 37.57 77.87 35.42 78.16 32.41 77.66 29.75 77.26 27.76 76.27 25.65 74.34 24.74 72.5 23.85 70.29 23.89 68.35 24.44Z" fill="#2B337F"/></g><g><path d="M113.78 18.46C118.93 15.66 125.08 15.58 130.78 16.23 134.26 16.66 138.05 17.81 140.14 20.84 141.81 23.18 141.83 26.17 141.75 28.93 141.75 33.54 141.76 38.15 141.71 42.76 141.68 44.93 142.14 47.08 142.93 49.1 139.11 49.12 135.29 49.07 131.47 49.13 131.2 48.17 130.98 47.19 130.8 46.21 126.38 49.82 120.19 50.78 114.73 49.44 111.75 48.75 108.94 46.71 107.91 43.74 106.97 40.91 107.08 37.57 108.79 35.05 110.06 33.14 112.2 32.06 114.32 31.36 118.95 29.82 123.9 29.95 128.62 28.86 130.66 28.49 131.47 25.76 130.05 24.29 128.1 22.52 125.19 22.56 122.76 23.02 120.93 23.43 119.82 25.13 119.34 26.83 115.81 26.79 112.28 26.83 108.76 26.81 108.92 23.42 110.7 20.05 113.78 18.46ZM120.72 36.68C118.74 37.65 118.25 40.6 119.78 42.17 121.01 43.43 122.9 43.51 124.55 43.43 126.43 43.39 128.41 42.61 129.44 40.97 130.76 38.89 130.67 36.32 130.67 33.96 127.52 35.43 123.81 35.04 120.72 36.68Z" fill="#2B337F"/></g><g><path d="M91.55 56.99C94.26 57.01 96.98 56.9 99.69 57.03 101.58 57.16 103.58 58.32 104.05 60.26 104.59 62.36 104.18 65.05 102.14 66.23 100.13 67.33 97.72 66.75 95.52 66.87 95.49 68.6 95.5 70.33 95.47 72.05 94.17 72.05 92.86 72.05 91.55 72.05 91.54 67.03 91.56 62.01 91.55 56.99ZM95.48 60.09C95.48 61.4 95.49 62.71 95.5 64.02 96.98 64.06 98.52 64.16 99.92 63.54 100.18 62.62 100.61 61.52 99.84 60.71 98.65 59.66 96.92 60.2 95.48 60.09Z" fill="#2B337F"/></g><path d="M105.09 61.63C105.05 60.06 104.74 58.47 105.17 56.93 106.28 56.97 107.39 56.98 108.51 57.01 108.43 62.04 108.58 67.06 108.43 72.09 107.32 72.06 106.21 72.05 105.1 72.03 105.22 68.56 104.92 65.09 105.09 61.63Z" fill="#2B337F"/><path d="M0 16.75C3.26 16.9 6.56 16.46 9.79 17 11.88 17.39 12.93 19.4 13.34 21.3 15.05 26.93 16.63 32.61 18.47 38.21 20.34 32.13 22.15 26.04 24.01 19.97 24.47 18.13 26.24 16.91 28.08 16.81 30.91 16.64 33.75 16.8 36.59 16.76 32.99 27 29.16 37.15 25.53 47.38 25.29 47.96 25.11 48.59 24.66 49.06 20.33 49.2 15.99 49.06 11.65 49.11 7.75 38.38 3.96 27.62 0 16.92L0 16.75Z" fill="#2B337F"/><path d="M42.47 16.88C45.04 16.6 47.64 16.85 50.22 16.75 50.31 26.16 50.25 35.58 50.25 44.99 50.33 47.26 48.17 49.04 46 49.09 43.58 49.17 41.15 49.08 38.72 49.11 38.74 39.83 38.7 30.56 38.73 21.28 38.69 19.13 40.32 17.13 42.47 16.88Z" fill="#2B337F"/><path d="M96.94 16.86C99.47 16.62 102.02 16.83 104.56 16.76 104.54 26.17 104.59 35.58 104.54 44.99 104.56 47.17 102.61 49.03 100.47 49.08 98.01 49.16 95.55 49.08 93.09 49.1 93.11 39.69 93.08 30.28 93.1 20.88 93.08 18.77 94.92 17.08 96.94 16.86Z" fill="#2B337F"/><path d="M110.05 61.08C111.27 61.04 112.49 61.05 113.69 61.24 113.69 63.68 113.47 66.15 113.78 68.57 114.55 70.11 116.95 69.37 117.25 67.83 117.41 65.58 117.26 63.32 117.32 61.06 118.5 61.06 119.68 61.06 120.86 61.06 120.86 64.72 120.88 68.38 120.85 72.05 119.77 72.05 118.69 72.05 117.61 72.05 117.61 71.7 117.61 70.99 117.62 70.64 115.71 72.71 111.46 73.1 110.29 70.08 109.8 67.12 110.16 64.08 110.05 61.08Z" fill="#2B337F"/><path d="M123.09 61.85C124.84 60.64 127.14 60.76 129.16 61.05 130.76 61.33 131.87 62.7 132.1 64.26 130.89 64.15 129.43 64.62 128.45 63.7 127.74 62.95 126.65 63.28 125.75 63.21 125.77 63.74 125.8 64.26 125.84 64.79 127.55 65.25 129.36 65.33 130.99 66.03 132.94 67.08 132.89 70.02 131.17 71.27 128.92 72.82 125.77 72.82 123.42 71.48 122.35 70.86 122 69.66 121.67 68.56 122.81 68.52 123.95 68.52 125.09 68.56 125.43 70.38 127.79 70.39 128.88 69.25 128.84 69.01 128.77 68.52 128.74 68.28 126.97 67.53 124.99 67.49 123.26 66.64 121.51 65.68 121.48 62.95 123.09 61.85Z" fill="#2B337F"/></g><g><path d="M91.53 74.37C92.87 74.33 94.21 74.33 95.55 74.33 95.55 78.33 95.55 82.33 95.55 86.34 97.93 86.34 100.32 86.34 102.7 86.33 102.83 87.42 102.91 88.51 102.95 89.61 99.17 90.05 95.34 89.8 91.54 89.75 91.55 84.61 91.57 79.49 91.53 74.37Z" fill="#F4623A"/><path d="M151.78 74.35C153.03 74.33 154.27 74.32 155.52 74.32 155.52 75.24 155.52 76.17 155.52 77.09 154.27 77.09 153.03 77.09 151.79 77.06 151.78 76.16 151.78 75.26 151.78 74.35Z" fill="#F4623A"/><path d="M128.08 74.35C129.36 74.33 130.65 74.33 131.93 74.35 131.93 75.26 131.92 76.17 131.93 77.09 130.64 77.11 129.36 77.1 128.08 77.09 128.08 76.17 128.08 75.26 128.08 74.35Z" fill="#F4623A"/><path d="M145.1 75.19C146.35 75.16 147.6 75.16 148.85 75.14 148.85 76.31 148.87 77.49 148.96 78.66 149.67 78.55 150.4 78.49 151.13 78.45 151.13 79.28 151.12 80.11 151.12 80.94 150.37 80.94 149.61 80.93 148.87 80.93 148.86 82.89 148.86 84.86 148.87 86.82 149.62 86.98 150.37 87.1 151.12 87.21 151.12 88.08 151.12 88.94 151.12 89.81 149.28 89.77 146.72 90.37 145.57 88.51 144.71 86.11 145.22 83.5 145.11 81.01 144.47 80.93 143.83 80.84 143.19 80.74 143.23 80.17 143.29 79.03 143.32 78.47 143.9 78.47 144.49 78.48 145.08 78.49 145.1 77.39 145.1 76.29 145.1 75.19Z" fill="#F4623A"/><g><path d="M103.11 83.02C103.7 80.95 105.12 78.96 107.31 78.43 109.03 78.15 110.98 78.13 112.44 79.23 113.68 80.1 114.81 81.55 114.61 83.14 114.46 84.58 115.11 86.23 114.08 87.47 112.18 90.54 107.43 90.96 104.85 88.55 103.94 87.71 103.57 86.48 103.09 85.38 103.11 84.59 103.11 83.8 103.11 83.02ZM106.64 84.43C107.01 85.37 107.13 86.63 108.17 87.09 109.21 87.69 110.26 86.88 111.04 86.22 111.19 84.43 111.67 81.83 109.54 81.02 107.43 80.53 106.85 82.87 106.64 84.43Z" fill="#F4623A"/></g><g><path d="M115.88 80.57C117.17 77.98 121.35 77.28 123.02 79.84 123.07 79.55 123.16 78.98 123.2 78.69 124.34 78.69 125.49 78.69 126.63 78.67 126.63 82.55 126.64 86.43 126.63 90.31 126.05 91.61 125.18 92.92 123.73 93.34 121.8 93.9 119.64 93.89 117.74 93.21 116.45 92.77 115.87 91.49 115.35 90.35 116.53 90.14 117.73 90.09 118.93 90.1 119.2 90.47 119.47 90.84 119.75 91.22 120.68 91.23 121.8 91.58 122.57 90.85 123.39 89.98 123.01 88.7 123.11 87.63 121.69 89.84 118.31 89.82 116.57 88.02 115.79 87.29 115.46 86.25 115 85.31 115.17 83.71 114.93 81.99 115.88 80.57ZM119.6 81.55C118.44 82.99 118.57 86.6 121.09 86.42 123.22 86.42 123.62 83.71 122.93 82.16 122.3 80.96 120.59 80.57 119.6 81.55Z" fill="#F4623A"/></g><path d="M128.05 78.77C129.26 78.46 130.58 78.32 131.8 78.68 132.14 81 131.84 83.39 131.93 85.72 132.18 85.95 132.43 86.18 132.69 86.4 133.7 86.25 134.73 86.06 135.75 86.14 136.53 86.68 136.93 87.91 138.06 87.74 139.17 87.96 139.92 87.11 140.11 86.11 138.34 85.2 136.29 85.2 134.49 84.43 132.63 83.69 132.26 80.9 133.75 79.63 135.4 78.05 137.92 78.17 140.02 78.45 141.78 78.67 143.02 80.2 143.31 81.88 142.18 81.89 141.06 81.89 139.94 81.85 139.27 80.32 137.49 80.45 136.28 81.2 136.9 82.49 138.36 82.82 139.67 82.85 139.68 82.92 139.7 83.06 139.71 83.14 140.81 83.12 142.04 83.24 142.77 84.18 144.4 85.85 143.42 88.89 141.27 89.58 138.35 90.66 134.34 90.41 132.63 87.43L133.12 87.13C132.8 87.04 132.16 86.85 131.85 86.76 131.9 87.74 131.93 88.73 131.97 89.72 130.68 89.84 129.38 89.84 128.08 89.83 128.07 86.14 128.13 82.45 128.05 78.77Z" fill="#F4623A"/><path d="M159.09 79.1C160.6 78.04 162.57 78.16 164.3 78.39 166.36 78.82 167.81 80.64 168.03 82.7 166.93 82.7 165.84 82.7 164.75 82.7 164.13 82.04 163.71 80.87 162.62 81.01 160.74 80.77 160.05 82.92 160.18 84.41 160.09 85.61 160.9 86.54 161.62 87.39 163.04 87.43 164.2 86.72 164.7 85.39 165.82 85.39 166.95 85.39 168.07 85.38 168.06 85.62 168.04 86.1 168.03 86.34 169.16 86.27 170.29 86.19 171.43 86.13 172.03 86.88 172.6 88.01 173.76 87.77 174.72 87.94 175.84 87.09 175.31 86.08 173.56 85 171.3 85.31 169.56 84.19 167.8 83.11 168.04 80.12 169.84 79.18 171.8 78.06 174.31 78.05 176.42 78.76 177.85 79.18 178.48 80.6 178.92 81.89 177.81 81.91 176.71 81.91 175.61 81.89 174.97 80.67 173.65 80.59 172.43 80.68 172.3 80.97 172.05 81.54 171.92 81.82 174.17 83.45 178.07 82.36 179.14 85.53L179.14 86.62C178.59 90.06 174.36 90.58 171.56 89.93 169.66 89.67 168.35 88.1 167.98 86.29 166.77 90.38 161.03 91.23 158.15 88.45 155.57 85.91 156.08 81.08 159.09 79.1Z" fill="#F4623A"/><path d="M151.78 78.72C153.03 78.69 154.28 78.68 155.53 78.7 155.53 82.41 155.53 86.12 155.53 89.82 154.28 89.82 153.03 89.82 151.78 89.82 151.79 86.12 151.79 82.42 151.78 78.72Z" fill="#F4623A"/></g></g></svg>