<svg width="234.82" height="60.47" viewBox="0 0 234.82 60.47" xmlns="http://www.w3.org/2000/svg" xmlns:xlink="http://www.w3.org/1999/xlink" overflow="hidden"><defs></defs><g><g><g><path d="M38.68 5.27C39.76 2.67 42.62 1.8 44.55 0 46.31 1.96 49.23 2.75 50.23 5.37 50.1 7.16 51.12 9.03 50.21 10.72 49.86 11.91 50.09 13.18 50.05 14.41 46.69 12.68 42.39 12.42 39.09 14.41 39.08 13.98 39.05 13.12 39.03 12.69 40.45 12.04 41.99 11.68 43.44 11.1 42.26 9.83 40.6 10.97 39.26 11.34 38.93 10.8 38.59 10.25 38.26 9.7 38.66 8.25 38.5 6.74 38.68 5.27ZM39.18 6.04C40.03 5.86 40.88 5.67 41.73 5.47 41.77 5.67 41.83 6.08 41.86 6.28 40.82 6.52 39.64 6.68 39.16 7.81 40.01 7.66 40.86 7.5 41.71 7.32 41.75 7.51 41.84 7.9 41.89 8.09 40.78 8.41 39.15 8.44 38.99 9.94 42.5 8.51 46.51 8.39 50.01 9.94 50.26 7.89 47.48 8.83 47.04 7.35 48.05 7.32 49.04 7.56 50.04 7.65 49.4 6.8 48.42 6.44 47.42 6.19 47.42 5.98 47.4 5.57 47.39 5.37 48.27 5.57 49.14 5.76 50.02 5.91 49.11 4.62 47.5 4.6 46.1 4.35 46.1 5.34 46.1 6.32 46.11 7.31 45.16 7.42 44.19 7.59 43.24 7.4 42.93 6.47 43.11 5.46 43.05 4.5 41.7 4.78 39.92 4.57 39.18 6.04Z" fill="#2B337F"/></g><path d="M96.16 7.18C97.09 5.46 98.85 4.03 100.88 4.01 103.87 3.95 106.85 4.02 109.84 3.99 108.52 6.2 107.19 8.42 105.83 10.61 104.98 11.97 103.41 12.77 101.82 12.74 98.9 12.78 95.99 12.76 93.07 12.73 94.12 10.89 95.13 9.03 96.16 7.18Z" fill="#2B337F"/><g><path d="M141.18 12.98C142.3 12.73 143.81 12.83 144.36 14.02 145.14 15.48 144.05 17.42 142.4 17.5 140.82 17.79 139.31 16.13 139.71 14.59 139.95 13.89 140.42 13.18 141.18 12.98ZM140.45 15.07C140.32 16.06 141.27 16.62 141.89 17.2 143.37 17.06 144.08 15.56 143.64 14.23 142.88 12.8 140.33 13.4 140.45 15.07Z" fill="#2B337F"/></g><path d="M141.33 16.63C141.25 15.61 141.2 14.57 141.5 13.58 141.69 14 142.05 14.83 142.24 15.25 142.23 14.87 142.21 14.12 142.2 13.75 143.8 13.86 142.98 15.37 142.7 16.32 142.56 16.15 142.29 15.8 142.15 15.63 141.95 15.87 141.54 16.38 141.33 16.63Z" fill="#2B337F"/><g><path d="M56.88 20.59C60.2 16.83 65.59 15.33 70.46 16.01 73.49 16.43 76.14 18.3 77.77 20.86 77.8 19.5 77.8 18.14 77.79 16.78 81.4 16.7 85.01 16.79 88.62 16.73 88.74 24.79 88.64 32.85 88.67 40.91 88.61 44.46 88.98 48.12 87.8 51.54 86.71 55.07 83.74 57.79 80.33 59.05 76.22 60.56 71.75 60.63 67.43 60.31 63.77 60.01 59.89 59.12 57.17 56.49 55.39 54.82 54.48 52.45 54.09 50.09 57.92 50.13 61.75 50.02 65.58 50.16 65.73 51.99 67.37 53.22 69.11 53.4 71.58 53.74 74.71 53.92 76.44 51.76 78.11 49.24 77.73 46.02 77.75 43.14 75.65 45.36 73.03 47.24 69.91 47.61 65.37 48.08 60.41 46.94 57.12 43.62 54.33 40.8 53.19 36.78 52.93 32.91 52.69 28.53 53.88 23.9 56.88 20.59ZM68.35 24.44C66.05 25.37 64.67 27.81 64.47 30.21 64.31 32.4 64.26 34.76 65.48 36.69 67.56 40.39 73.34 40.59 76.08 37.57 77.87 35.42 78.16 32.41 77.66 29.75 77.26 27.76 76.27 25.65 74.34 24.74 72.5 23.85 70.29 23.89 68.35 24.44Z" fill="#2B337F"/></g><g><path d="M113.78 18.46C118.93 15.66 125.08 15.58 130.78 16.23 134.26 16.66 138.05 17.81 140.14 20.84 141.81 23.18 141.83 26.17 141.75 28.93 141.75 33.54 141.76 38.15 141.71 42.76 141.68 44.93 142.14 47.08 142.93 49.1 139.11 49.12 135.29 49.07 131.47 49.13 131.2 48.17 130.98 47.19 130.8 46.21 126.38 49.82 120.19 50.78 114.73 49.44 111.75 48.75 108.94 46.71 107.91 43.74 106.97 40.91 107.08 37.57 108.79 35.05 110.06 33.14 112.2 32.06 114.32 31.36 118.95 29.82 123.9 29.95 128.62 28.86 130.66 28.49 131.47 25.76 130.05 24.29 128.1 22.52 125.19 22.56 122.76 23.02 120.93 23.43 119.82 25.13 119.34 26.83 115.81 26.79 112.28 26.83 108.76 26.81 108.92 23.42 110.7 20.05 113.78 18.46ZM120.72 36.68C118.74 37.65 118.25 40.6 119.78 42.17 121.01 43.43 122.9 43.51 124.55 43.43 126.43 43.39 128.41 42.61 129.44 40.97 130.76 38.89 130.67 36.32 130.67 33.96 127.52 35.43 123.81 35.04 120.72 36.68Z" fill="#2B337F"/></g><g><path d="M147.23 15.62C149.94 15.64 152.66 15.53 155.37 15.66 157.26 15.79 159.26 16.95 159.73 18.89 160.27 20.99 159.86 23.68 157.82 24.86 155.81 25.96 153.4 25.38 151.2 25.5 151.17 27.23 151.18 28.96 151.15 30.68 149.85 30.68 148.54 30.68 147.23 30.68 147.23 25.66 147.24 20.64 147.23 15.62ZM151.16 18.72C151.16 20.03 151.17 21.34 151.18 22.65 152.66 22.69 154.2 22.79 155.6 22.17 155.86 21.25 156.29 20.15 155.52 19.34 154.34 18.28 152.6 18.83 151.16 18.72Z" fill="#2B337F"/></g><path d="M160.78 20.26C160.74 18.69 160.43 17.1 160.86 15.56 161.97 15.6 163.08 15.61 164.2 15.64 164.12 20.67 164.27 25.69 164.12 30.72 163.01 30.69 161.9 30.68 160.79 30.66 160.91 27.19 160.61 23.72 160.78 20.26Z" fill="#2B337F"/><path d="M0 16.75C3.26 16.9 6.56 16.46 9.79 17 11.88 17.39 12.93 19.4 13.34 21.3 15.05 26.93 16.63 32.61 18.47 38.21 20.34 32.13 22.15 26.04 24.01 19.97 24.47 18.13 26.24 16.91 28.08 16.81 30.91 16.64 33.75 16.8 36.59 16.76 32.99 27 29.16 37.15 25.53 47.38 25.29 47.96 25.11 48.59 24.66 49.06 20.33 49.2 15.99 49.06 11.65 49.11 7.75 38.38 3.96 27.62 0 16.92L0 16.75Z" fill="#2B337F"/><path d="M42.47 16.88C45.04 16.6 47.64 16.85 50.22 16.75 50.31 26.16 50.25 35.58 50.25 44.99 50.33 47.26 48.17 49.04 46 49.09 43.58 49.17 41.15 49.08 38.72 49.11 38.74 39.83 38.7 30.56 38.73 21.28 38.69 19.13 40.32 17.13 42.47 16.88Z" fill="#2B337F"/><path d="M96.94 16.86C99.47 16.62 102.02 16.83 104.56 16.76 104.54 26.17 104.59 35.58 104.54 44.99 104.56 47.17 102.61 49.03 100.47 49.08 98.01 49.16 95.55 49.08 93.09 49.1 93.11 39.69 93.08 30.28 93.1 20.88 93.08 18.77 94.92 17.08 96.94 16.86Z" fill="#2B337F"/><path d="M165.74 19.71C166.96 19.67 168.18 19.68 169.38 19.87 169.38 22.31 169.16 24.78 169.47 27.2 170.24 28.74 172.64 28 172.94 26.46 173.1 24.21 172.95 21.95 173.01 19.69 174.19 19.69 175.37 19.69 176.55 19.69 176.55 23.35 176.57 27.01 176.54 30.68 175.46 30.68 174.38 30.68 173.3 30.68 173.3 30.33 173.3 29.62 173.31 29.27 171.4 31.34 167.15 31.73 165.98 28.71 165.48 25.75 165.85 22.71 165.74 19.71Z" fill="#2B337F"/><path d="M178.77 20.48C180.52 19.27 182.82 19.39 184.84 19.68 186.44 19.96 187.55 21.33 187.78 22.89 186.57 22.78 185.11 23.25 184.13 22.33 183.42 21.58 182.33 21.91 181.43 21.84 181.45 22.37 181.48 22.89 181.52 23.42 183.23 23.88 185.04 23.96 186.67 24.66 188.62 25.71 188.57 28.65 186.85 29.9 184.6 31.45 181.45 31.45 179.1 30.11 178.03 29.49 177.68 28.29 177.35 27.19 178.49 27.15 179.63 27.15 180.77 27.19 181.12 29.08 183.64 29.02 184.67 27.75 184.58 27.42 184.54 27.26 184.46 26.93 182.68 26.17 180.68 26.13 178.94 25.28 177.2 24.31 177.16 21.58 178.77 20.48Z" fill="#2B337F"/></g><g><path d="M147.22 32.99C148.56 32.95 149.9 32.95 151.24 32.95 151.24 36.95 151.24 40.95 151.24 44.96 153.62 44.96 156.01 44.96 158.39 44.95 158.52 46.04 158.6 47.13 158.64 48.23 154.86 48.67 151.03 48.42 147.23 48.37 147.23 43.24 147.25 38.12 147.22 32.99Z" fill="#F4623A"/><path d="M206.48 33C208.05 32.96 209.62 32.95 211.2 32.95 211.2 33.87 211.2 34.8 211.2 35.72 209.63 35.73 208.06 35.72 206.5 35.67 206.49 33.94 206.49 34.73 206.48 33Z" fill="#F4623A"/><path d="M183.77 32.98C185.05 32.96 186.34 32.96 187.62 32.98 187.62 33.89 187.61 34.8 187.62 35.72 186.33 35.74 185.05 35.73 183.77 35.72L183.77 32.98Z" fill="#F4623A"/><path d="M200.79 33.82C202.04 33.79 203.29 33.79 204.54 33.77 204.54 34.94 204.56 36.12 204.65 37.29 205.36 37.18 206.09 37.12 206.82 37.08 206.82 37.91 206.81 38.74 206.81 39.57 206.06 39.57 205.3 39.56 204.56 39.56 204.55 41.52 204.55 43.49 204.56 45.45 205.31 45.61 206.06 45.73 206.81 45.84 206.81 46.71 206.81 47.57 206.81 48.44 204.97 48.4 202.41 49 201.26 47.14 200.4 44.74 200.91 42.13 200.8 39.64 200.14 39.55 199.49 39.46 198.84 39.36 198.95 37.96 198.91 38.5 199.02 37.09 199.6 37.09 200.19 37.1 200.78 37.11 200.78 36.02 200.78 34.92 200.79 33.82Z" fill="#F4623A"/><g><path d="M158.68 42.1C159.18 39.87 160.65 37.62 163 37.05 164.72 36.77 166.67 36.75 168.13 37.85 169.37 38.72 170.5 40.17 170.3 41.76 170.15 43.2 170.8 44.85 169.77 46.09 167.87 49.16 163.12 49.58 160.54 47.17 159.71 46.4 159.33 45.32 158.91 44.3 158.85 43.67 158.75 42.73 158.68 42.1ZM162.33 43.06C162.7 44 162.82 45.26 163.86 45.72 164.9 46.32 165.95 45.51 166.73 44.85 166.88 43.06 167.36 40.46 165.23 39.65 163.12 39.16 162.54 41.5 162.33 43.06Z" fill="#F4623A"/></g><g><path d="M171.57 39.19C172.86 36.6 177.04 35.9 178.71 38.46 178.76 38.17 178.85 37.6 178.89 37.31 180.03 37.31 181.18 37.31 182.32 37.29 182.32 41.17 182.33 45.05 182.32 48.93 181.74 50.23 180.87 51.54 179.42 51.96 177.49 52.52 175.33 52.51 173.43 51.83 172.14 51.39 171.56 50.11 171.04 48.97 172.22 48.76 173.42 48.71 174.62 48.72 174.89 49.09 175.16 49.46 175.44 49.84 176.37 49.85 177.49 50.2 178.26 49.47 179.08 48.6 178.7 47.32 178.8 46.25 177.38 48.46 174 48.44 172.26 46.64 171.48 45.91 171.15 44.87 170.69 43.93 170.86 42.34 170.61 40.61 171.57 39.19ZM175.28 40.18C174.12 41.62 174.25 45.23 176.77 45.05 178.9 45.05 179.3 42.34 178.61 40.79 177.98 39.59 176.28 39.19 175.28 40.18Z" fill="#F4623A"/></g><path d="M183.73 37.4C184.94 37.09 186.26 36.95 187.48 37.31 187.82 39.66 187.51 42.06 187.61 44.43 187.91 44.67 188.07 44.8 188.37 45.04 189.38 44.89 190.41 44.7 191.43 44.78 192.21 45.32 192.61 46.55 193.74 46.38 194.85 46.6 195.6 45.75 195.79 44.75 194.02 43.84 191.97 43.84 190.17 43.07 188.31 42.33 187.94 39.54 189.43 38.27 191.08 36.69 193.6 36.81 195.7 37.09 197.46 37.31 198.7 38.84 198.99 40.52 197.86 40.53 196.74 40.53 195.62 40.49 194.95 38.96 193.17 39.09 191.96 39.84 192.58 41.13 194.04 41.46 195.35 41.49 195.36 41.56 195.38 41.7 195.39 41.78 196.49 41.76 197.72 41.88 198.45 42.82 200.08 44.49 199.1 47.53 196.95 48.22 194.03 49.3 190.02 49.05 188.31 46.07L188.8 45.77C188.48 45.68 187.84 45.49 187.53 45.4 187.58 46.38 187.61 47.37 187.65 48.36 186.36 48.48 185.06 48.48 183.76 48.47 183.76 44.77 183.81 41.08 183.73 37.4Z" fill="#F4623A"/><path d="M214.77 37.73C216.28 36.67 218.25 36.79 219.98 37.02 222.04 37.45 223.49 39.27 223.71 41.33 222.61 41.33 221.52 41.33 220.43 41.33 219.81 40.67 219.39 39.5 218.3 39.64 216.42 39.4 215.73 41.55 215.86 43.04 215.77 44.24 216.58 45.17 217.3 46.02 218.72 46.06 219.88 45.35 220.38 44.02 221.5 44.02 222.63 44.02 223.75 44.01 223.74 44.25 223.72 44.73 223.71 44.97 224.84 44.9 225.97 44.82 227.11 44.76 227.71 45.51 228.28 46.64 229.44 46.4 230.4 46.57 231.52 45.72 230.99 44.71 229.24 43.63 226.98 43.94 225.24 42.82 223.48 41.74 223.72 38.75 225.52 37.81 227.48 36.69 229.99 36.68 232.1 37.39 233.53 37.81 234.16 39.23 234.6 40.52 233.49 40.54 232.39 40.54 231.29 40.52 230.65 39.3 229.33 39.22 228.11 39.31 227.98 39.6 227.73 40.17 227.6 40.45 229.85 42.08 233.75 40.99 234.82 44.16L234.82 45.25C234.27 48.69 230.04 49.21 227.24 48.56 225.34 48.3 224.03 46.73 223.66 44.92 222.45 49.01 216.71 49.86 213.83 47.08 211.25 44.53 211.76 39.71 214.77 37.73Z" fill="#F4623A"/><path d="M207.46 37.35C208.71 37.32 209.96 37.31 211.21 37.33 211.21 41.04 211.21 44.75 211.21 48.45 209.96 48.45 208.71 48.45 207.46 48.45 207.47 44.75 207.48 41.05 207.46 37.35Z" fill="#F4623A"/></g></g></svg>